<svg width="28" height="28" viewBox="0 0 28 28" fill="none" xmlns="http://www.w3.org/2000/svg">
<path fill-rule="evenodd" clip-rule="evenodd" d="M12.2341 4.79994C13.0209 3.44396 14.9791 3.44397 15.7659 4.79994L18.1755 8.95253C18.3976 9.33529 18.7815 9.5965 19.219 9.66259L23.2203 10.2669C24.9645 10.5304 25.5763 12.7325 24.2179 13.8579L21.3025 16.2733C20.8933 16.6123 20.7009 17.147 20.8003 17.669L21.617 21.9577C21.9369 23.6376 20.1733 24.9429 18.6601 24.1461L14.6794 22.0501C14.2541 21.8262 13.7458 21.8262 13.3205 22.0501L9.33984 24.1461C7.82666 24.9429 6.06309 23.6376 6.38299 21.9577L7.19964 17.669C7.29904 17.147 7.10663 16.6123 6.69743 16.2733L3.78205 13.8579C2.42371 12.7325 3.03552 10.5304 4.77968 10.2669L8.78094 9.66259C9.21851 9.5965 9.6024 9.33529 9.8245 8.95253L12.2341 4.79994ZM14.2523 5.67824C14.1399 5.48453 13.8601 5.48453 13.7477 5.67824L11.3381 9.83083C10.8495 10.6729 10.0049 11.2476 9.04229 11.393L5.04103 11.9973C4.79186 12.0349 4.70447 12.3495 4.89851 12.5103L7.8139 14.9257C8.71414 15.6715 9.13743 16.848 8.91875 17.9964L8.1021 22.285C8.0564 22.525 8.30834 22.7115 8.52451 22.5977L12.5052 20.5017C13.4408 20.009 14.5591 20.009 15.4948 20.5017L19.4755 22.5977C19.6916 22.7115 19.9436 22.525 19.8979 22.285L19.0812 17.9964C18.8625 16.848 19.2858 15.6715 20.1861 14.9257L23.1015 12.5103C23.2955 12.3495 23.2081 12.0349 22.9589 11.9973L18.9577 11.393C17.995 11.2476 17.1505 10.6729 16.6618 9.83083L14.2523 5.67824Z" fill="#03A3F5"/>
</svg>
