<svg width="32" height="32" viewBox="0 0 32 32" fill="none" xmlns="http://www.w3.org/2000/svg">
<g clip-path="url(#clip0_478_54)">
<path d="M29 15.3527C28.3497 9.68253 23.891 6 18.5522 6C13.506 6 10.2559 9.0523 9.19105 12.0793C4.80299 12.4592 1 14.8396 1 19.1717C1 23.3512 4.94926 26.2643 9.77612 26.2643H28.791" stroke="black" stroke-linejoin="round"/>
<path d="M17.6836 24V16.9541H18.6992L21.1406 22.8916H21.1699L23.6113 16.9541H24.627V24H23.8066V18.5557H23.7773L21.5264 24H20.7842L18.5332 18.5557H18.5039V24H17.6836ZM28.9482 24.1172C27.9652 24.1172 27.1807 23.7852 26.5947 23.1211C26.012 22.457 25.7207 21.5635 25.7207 20.4404V20.4355C25.7207 19.3353 26.012 18.4613 26.5947 17.8135C27.1774 17.1624 27.9619 16.8369 28.9482 16.8369C29.7262 16.8369 30.3643 17.0371 30.8623 17.4375C31.3604 17.8346 31.6956 18.3604 31.8682 19.0146L31.8926 19.1074H30.9697L30.9502 19.0537C30.7842 18.6012 30.5319 18.2546 30.1934 18.0137C29.8548 17.7695 29.4398 17.6475 28.9482 17.6475C28.2223 17.6475 27.6527 17.8949 27.2393 18.3896C26.8258 18.8844 26.6191 19.5664 26.6191 20.4355V20.4404C26.6191 21.3258 26.8275 22.0257 27.2441 22.54C27.6608 23.0511 28.2288 23.3066 28.9482 23.3066C29.5732 23.3066 30.0811 23.1227 30.4717 22.7549C30.8623 22.3838 31.0576 21.9036 31.0576 21.3145V21.1875H29.0703V20.416H31.9365V21.085C31.9365 22.0387 31.6729 22.7826 31.1455 23.3164C30.6214 23.8503 29.889 24.1172 28.9482 24.1172Z" fill="black"/>
</g>
<defs>
<clipPath id="clip0_478_54">
<rect width="32" height="32" fill="white"/>
</clipPath>
</defs>
</svg>
