<svg width="40" height="40" viewBox="0 0 40 40" fill="none" xmlns="http://www.w3.org/2000/svg">
<rect width="40" height="40" rx="7" fill="#F7F7F5"/>
<path fill-rule="evenodd" clip-rule="evenodd" d="M12.25 13C12.25 11.4812 13.4812 10.25 15 10.25H22.9868C23.5506 10.25 24.0798 10.5216 24.4085 10.9795L27.4217 15.1774C27.6352 15.4749 27.75 15.8318 27.75 16.1979V27C27.75 28.5188 26.5188 29.75 25 29.75H15C13.4812 29.75 12.25 28.5188 12.25 27V13ZM15 11.75C14.3096 11.75 13.75 12.3096 13.75 13V27C13.75 27.6904 14.3096 28.25 15 28.25H25C25.6904 28.25 26.25 27.6904 26.25 27V16.897H23C22.5858 16.897 22.25 16.5613 22.25 16.147V11.75H15Z" fill="#5D5B57"/>
</svg>
