<svg width="153" height="47" viewBox="0 0 153 47" fill="none" xmlns="http://www.w3.org/2000/svg">
<path d="M41.5 9.525H44.6L50.45 22.325L56.3 9.525H59.4V27H56.4V15.65L51.2 27H49.7L44.5 15.65V27H41.5V9.525ZM70.8695 27.375C69.0362 27.375 67.4112 27.0083 65.9945 26.275C64.5779 25.525 63.4779 24.4667 62.6945 23.1C61.9112 21.7167 61.5195 20.1083 61.5195 18.275C61.5195 16.4417 61.9112 14.8417 62.6945 13.475C63.4779 12.0917 64.5779 11.025 65.9945 10.275C67.4112 9.525 69.0362 9.15 70.8695 9.15C72.1195 9.15 73.2362 9.28333 74.2195 9.55C75.2029 9.81667 76.0945 10.2417 76.8945 10.825V13.85C76.1612 13.2167 75.3195 12.7583 74.3695 12.475C73.4195 12.1917 72.3445 12.05 71.1445 12.05C69.9445 12.05 68.8529 12.3083 67.8695 12.825C66.9029 13.325 66.1362 14.05 65.5695 15C65.0029 15.9333 64.7195 17.025 64.7195 18.275C64.7195 19.5417 64.9862 20.65 65.5195 21.6C66.0529 22.5333 66.7945 23.2583 67.7445 23.775C68.6945 24.275 69.7779 24.525 70.9945 24.525C72.2779 24.525 73.3362 24.3083 74.1695 23.875V19.95H71.2195V17.425H77.3445V25.575C75.7945 26.775 73.6362 27.375 70.8695 27.375Z" fill="#7A11E3"/>
<path d="M89.1918 27.375C87.3585 27.375 85.7335 27.0083 84.3168 26.275C82.9001 25.525 81.8001 24.4667 81.0168 23.1C80.2335 21.7167 79.8418 20.1083 79.8418 18.275C79.8418 16.4417 80.2335 14.8417 81.0168 13.475C81.8001 12.0917 82.9001 11.025 84.3168 10.275C85.7335 9.525 87.3585 9.15 89.1918 9.15C91.6085 9.15 93.6251 9.725 95.2418 10.875V13.9C93.7918 12.6667 91.8668 12.05 89.4668 12.05C88.1835 12.05 87.0585 12.3083 86.0918 12.825C85.1251 13.325 84.3751 14.0417 83.8418 14.975C83.3085 15.9083 83.0418 17.0083 83.0418 18.275C83.0418 19.5417 83.3085 20.6417 83.8418 21.575C84.3918 22.5083 85.1501 23.2333 86.1168 23.75C87.0835 24.25 88.2001 24.5 89.4668 24.5C90.7001 24.5 91.8001 24.35 92.7668 24.05C93.7335 23.7333 94.6251 23.2333 95.4418 22.55V25.575C93.9085 26.775 91.8251 27.375 89.1918 27.375ZM98.4443 8.525H101.594V27H98.4443V8.525ZM111.622 27.375C110.222 27.375 108.988 27.125 107.922 26.625C106.872 26.1083 106.055 25.375 105.472 24.425C104.888 23.4583 104.597 22.3167 104.597 21C104.597 19.7167 104.88 18.6 105.447 17.65C106.03 16.6833 106.855 15.9417 107.922 15.425C108.988 14.8917 110.222 14.625 111.622 14.625C113.022 14.625 114.247 14.8917 115.297 15.425C116.363 15.9417 117.188 16.6833 117.772 17.65C118.355 18.6 118.647 19.7167 118.647 21C118.647 22.3167 118.355 23.4583 117.772 24.425C117.188 25.375 116.363 26.1083 115.297 26.625C114.247 27.125 113.022 27.375 111.622 27.375ZM111.622 24.9C112.772 24.9 113.688 24.5417 114.372 23.825C115.055 23.0917 115.397 22.15 115.397 21C115.397 19.7833 115.055 18.8333 114.372 18.15C113.705 17.45 112.788 17.1 111.622 17.1C110.455 17.1 109.53 17.45 108.847 18.15C108.18 18.8333 107.847 19.7833 107.847 21C107.847 22.15 108.188 23.0917 108.872 23.825C109.555 24.5417 110.472 24.9 111.622 24.9ZM126.337 27.375C124.72 27.375 123.512 26.9417 122.712 26.075C121.912 25.1917 121.512 24.025 121.512 22.575V15H124.662V22.275C124.662 24.025 125.478 24.9 127.112 24.9C127.828 24.9 128.503 24.7333 129.137 24.4C129.77 24.05 130.303 23.5333 130.737 22.85V15H133.887V27H130.837V25.375C130.27 26.0583 129.595 26.5667 128.812 26.9C128.028 27.2167 127.203 27.375 126.337 27.375ZM143.221 27.375C142.004 27.375 140.912 27.1167 139.946 26.6C138.996 26.0667 138.246 25.325 137.696 24.375C137.162 23.4083 136.896 22.2917 136.896 21.025C136.896 19.775 137.162 18.6667 137.696 17.7C138.246 16.7333 138.996 15.9833 139.946 15.45C140.912 14.9 142.004 14.625 143.221 14.625C145.187 14.625 146.737 15.1417 147.871 16.175V8.525H151.021V27H147.971V25.6C147.287 26.2333 146.579 26.6917 145.846 26.975C145.112 27.2417 144.237 27.375 143.221 27.375ZM143.996 24.9C144.896 24.9 145.696 24.6583 146.396 24.175C147.096 23.6917 147.587 23.0417 147.871 22.225V19.8C147.604 18.9833 147.112 18.3333 146.396 17.85C145.696 17.35 144.896 17.1 143.996 17.1C142.862 17.1 141.929 17.4667 141.196 18.2C140.462 18.9333 140.096 19.875 140.096 21.025C140.096 22.175 140.462 23.1083 141.196 23.825C141.929 24.5417 142.862 24.9 143.996 24.9Z" fill="black"/>
<g filter="url(#filter0_dddd_555_181)">
<mask id="path-2-inside-1_555_181" fill="white">
<path fill-rule="evenodd" clip-rule="evenodd" d="M16.1733 11.5921C17.4557 9.59966 19.6939 8.27777 22.2425 8.27777C26.0832 8.27777 29.2227 11.2797 29.4428 15.0652C29.5273 15.0616 29.6123 15.0598 29.6976 15.0598C32.9948 15.0598 35.6677 17.7327 35.6677 21.0299C35.6677 24.3271 32.9948 27 29.6976 27H14.1661C9.83959 27 6.33224 23.4927 6.33224 19.1661C6.33224 14.8396 9.83959 11.3323 14.1661 11.3323C14.859 11.3323 15.532 11.4225 16.1733 11.5921Z"/>
</mask>
<path fill-rule="evenodd" clip-rule="evenodd" d="M16.1733 11.5921C17.4557 9.59966 19.6939 8.27777 22.2425 8.27777C26.0832 8.27777 29.2227 11.2797 29.4428 15.0652C29.5273 15.0616 29.6123 15.0598 29.6976 15.0598C32.9948 15.0598 35.6677 17.7327 35.6677 21.0299C35.6677 24.3271 32.9948 27 29.6976 27H14.1661C9.83959 27 6.33224 23.4927 6.33224 19.1661C6.33224 14.8396 9.83959 11.3323 14.1661 11.3323C14.859 11.3323 15.532 11.4225 16.1733 11.5921Z" fill="url(#paint0_linear_555_181)"/>
<path d="M17.5441 13.2295L6.28502 7.79976L6.28501 7.79977L17.5441 13.2295ZM16.2808 13.7271L20.8137 2.07791L20.8137 2.0779L16.2808 13.7271ZM27.4187 16.1103L15.0052 14.6423L15.0052 14.6423L27.4187 16.1103ZM28.8033 18.6593C27.6392 21.073 25.15 22.7778 22.2425 22.7778V-2.22223C15.2009 -2.22223 9.13562 1.88875 6.28502 7.79976L28.8033 18.6593ZM11.7479 25.3762C18.3147 27.9315 25.7424 25.0063 28.8033 18.6593L6.28501 7.79977C8.89242 2.39303 15.2197 -0.0988179 20.8137 2.07791L11.7479 25.3762ZM14.1661 25.8323C13.3386 25.8323 12.5155 25.6749 11.7479 25.3762L20.8137 2.0779C18.7374 1.26998 16.4891 0.832279 14.1661 0.832279V25.8323ZM20.8322 19.1661C20.8322 22.8478 17.8477 25.8323 14.1661 25.8323V0.832279C4.0406 0.832279 -4.16776 9.04063 -4.16776 19.1661H20.8322ZM14.1661 12.5C17.8477 12.5 20.8322 15.4845 20.8322 19.1661H-4.16776C-4.16776 29.2917 4.0406 37.5 14.1661 37.5V12.5ZM29.6976 12.5H14.1661V37.5H29.6976V12.5ZM21.1677 21.0299C21.1677 16.319 24.9867 12.5 29.6976 12.5V37.5C38.7938 37.5 46.1677 30.1261 46.1677 21.0299H21.1677ZM28 33.5299C30.3174 33.5299 32.3087 32.9948 33.0704 32.7891C33.5296 32.665 34.0183 32.5209 34.2325 32.4589C34.5331 32.3719 34.5926 32.3579 34.5712 32.363C34.5461 32.369 34.4483 32.3921 34.2963 32.4196C34.1476 32.4466 33.8911 32.4879 33.5535 32.5178C33.0155 32.5654 31.5298 32.6587 29.6593 32.1248C27.5166 31.5131 24.9267 30.0711 23.0937 27.3043C21.4076 24.7595 21.1677 22.2983 21.1677 21.0299H46.1677C46.1677 19.2135 45.8193 16.3411 43.9346 13.4965C41.9029 10.43 39.0244 8.79949 36.5216 8.08505C34.2911 7.44834 32.3739 7.52456 31.3516 7.61496C30.2451 7.7128 29.3108 7.91572 28.741 8.05236C28.1481 8.19454 27.6019 8.35189 27.2812 8.44472C26.874 8.56259 26.7257 8.60688 26.5508 8.65413C26.0442 8.79098 26.779 8.52993 28 8.52993V33.5299ZM15.0052 14.6423C15.0881 13.942 15.2141 13.4114 15.2446 13.282C15.2944 13.071 15.3383 12.9117 15.3586 12.8394C15.3819 12.7564 15.3999 12.6966 15.408 12.6699C15.4127 12.6546 15.4162 12.6432 15.4183 12.6364C15.4205 12.6295 15.4217 12.6257 15.4217 12.6255C15.4219 12.6251 15.4212 12.6273 15.4196 12.6322C15.418 12.6371 15.4158 12.644 15.4128 12.6533C15.4066 12.672 15.3984 12.6971 15.3877 12.7294C15.3658 12.7954 15.3382 12.8776 15.3034 12.9806C15.1785 13.3501 14.9393 14.0476 14.7313 14.6775C14.5311 15.2836 14.2516 16.1493 14.0334 16.9669C13.9394 17.3188 13.748 18.0578 13.6212 18.9172C13.5663 19.2892 13.4356 20.2389 13.4849 21.4301C13.5094 22.0225 13.5933 23.1375 13.9834 24.4729C14.339 25.6904 15.2838 28.2553 17.8165 30.4489L34.1835 11.5512C36.7006 13.7312 37.6333 16.2745 37.9804 17.4628C38.362 18.769 38.4408 19.8473 38.4635 20.3958C38.5092 21.4994 38.3878 22.3332 38.3536 22.565C38.3034 22.9056 38.2502 23.149 38.2295 23.2411C38.205 23.35 38.1881 23.4128 38.1876 23.4146C38.1859 23.4208 38.1913 23.4004 38.2065 23.3487C38.2212 23.2984 38.2414 23.2312 38.2679 23.1458C38.3218 22.972 38.3895 22.7617 38.4703 22.517C38.6434 21.9928 38.8035 21.5291 38.9874 20.9848C39.0656 20.7535 39.1645 20.4588 39.2509 20.1867C39.2922 20.0564 39.3596 19.8409 39.4286 19.5949C39.4629 19.4726 39.5182 19.2702 39.5764 19.0234C39.6154 18.8583 39.747 18.2992 39.8322 17.5784L15.0052 14.6423ZM14.9551 15.4904C14.9551 15.2088 14.9717 14.9255 15.0052 14.6423L39.8322 17.5784C39.9137 16.8893 39.9551 16.1923 39.9551 15.4904H14.9551ZM22.2425 22.7778C18.2178 22.7778 14.9551 19.5151 14.9551 15.4904H39.9551C39.9551 5.70797 32.0249 -2.22223 22.2425 -2.22223V22.7778ZM16.1733 11.5921L9.78288 35.7615C20.2606 38.5318 31.3301 34.2356 37.1956 25.1222L16.1733 11.5921ZM29.4428 15.0652L4.48493 16.516C5.27717 30.1444 16.8554 40.6175 30.4947 40.0431L29.4428 15.0652ZM22.2425 -16.7222C10.8324 -16.7222 0.836526 -10.7718 -4.84894 -1.93806L37.1956 25.1222C34.0748 29.9711 28.5555 33.2778 22.2425 33.2778V-16.7222ZM54.4007 13.6144C53.4165 -3.31485 39.4043 -16.7222 22.2425 -16.7222V33.2778C12.7621 33.2778 5.02894 25.8742 4.48493 16.516L54.4007 13.6144ZM29.6976 -9.94016C29.2606 -9.94016 28.8249 -9.93093 28.3909 -9.91265L30.4947 40.0431C30.2298 40.0542 29.964 40.0598 29.6976 40.0598V-9.94016ZM60.6677 21.0299C60.6677 3.92562 46.8019 -9.94016 29.6976 -9.94016V40.0598C19.1877 40.0598 10.6677 31.5399 10.6677 21.0299H60.6677ZM29.6976 52C46.8019 52 60.6677 38.1342 60.6677 21.0299H10.6677C10.6677 10.52 19.1877 2.00002 29.6976 2.00002V52ZM14.1661 52H29.6976V2.00002H14.1661V52ZM-18.6678 19.1661C-18.6678 37.2998 -3.96754 52 14.1661 52V2.00002C23.6467 2.00002 31.3322 9.68556 31.3322 19.1661H-18.6678ZM14.1661 -13.6677C-3.96753 -13.6677 -18.6678 1.0325 -18.6678 19.1661H31.3322C31.3322 28.6467 23.6467 36.3323 14.1661 36.3323V-13.6677ZM22.5638 -12.5774C19.8564 -13.2932 17.0361 -13.6677 14.1661 -13.6677V36.3323C12.6819 36.3323 11.2075 36.1382 9.78288 35.7615L22.5638 -12.5774Z" fill="url(#paint1_linear_555_181)" mask="url(#path-2-inside-1_555_181)"/>
</g>
<defs>
<filter id="filter0_dddd_555_181" x="-1" y="1" width="44" height="53" filterUnits="userSpaceOnUse" color-interpolation-filters="sRGB">
<feFlood flood-opacity="0" result="BackgroundImageFix"/>
<feColorMatrix in="SourceAlpha" type="matrix" values="0 0 0 0 0 0 0 0 0 0 0 0 0 0 0 0 0 0 127 0" result="hardAlpha"/>
<feOffset dy="1"/>
<feGaussianBlur stdDeviation="1"/>
<feColorMatrix type="matrix" values="0 0 0 0 0 0 0 0 0 0 0 0 0 0 0 0 0 0 0.1 0"/>
<feBlend mode="normal" in2="BackgroundImageFix" result="effect1_dropShadow_555_181"/>
<feColorMatrix in="SourceAlpha" type="matrix" values="0 0 0 0 0 0 0 0 0 0 0 0 0 0 0 0 0 0 127 0" result="hardAlpha"/>
<feOffset dy="4"/>
<feGaussianBlur stdDeviation="2"/>
<feColorMatrix type="matrix" values="0 0 0 0 0 0 0 0 0 0 0 0 0 0 0 0 0 0 0.09 0"/>
<feBlend mode="normal" in2="effect1_dropShadow_555_181" result="effect2_dropShadow_555_181"/>
<feColorMatrix in="SourceAlpha" type="matrix" values="0 0 0 0 0 0 0 0 0 0 0 0 0 0 0 0 0 0 127 0" result="hardAlpha"/>
<feOffset dy="8"/>
<feGaussianBlur stdDeviation="2.5"/>
<feColorMatrix type="matrix" values="0 0 0 0 0 0 0 0 0 0 0 0 0 0 0 0 0 0 0.05 0"/>
<feBlend mode="normal" in2="effect2_dropShadow_555_181" result="effect3_dropShadow_555_181"/>
<feColorMatrix in="SourceAlpha" type="matrix" values="0 0 0 0 0 0 0 0 0 0 0 0 0 0 0 0 0 0 127 0" result="hardAlpha"/>
<feOffset dy="14"/>
<feGaussianBlur stdDeviation="3"/>
<feColorMatrix type="matrix" values="0 0 0 0 0 0 0 0 0 0 0 0 0 0 0 0 0 0 0.01 0"/>
<feBlend mode="normal" in2="effect3_dropShadow_555_181" result="effect4_dropShadow_555_181"/>
<feBlend mode="normal" in="SourceGraphic" in2="effect4_dropShadow_555_181" result="shape"/>
</filter>
<linearGradient id="paint0_linear_555_181" x1="21" y1="8.27777" x2="21" y2="27" gradientUnits="userSpaceOnUse">
<stop stop-color="#7A11E3"/>
<stop offset="1" stop-color="#641AAE"/>
</linearGradient>
<linearGradient id="paint1_linear_555_181" x1="21" y1="8.27777" x2="21" y2="27" gradientUnits="userSpaceOnUse">
<stop stop-color="#7A11E3"/>
<stop offset="1" stop-color="#641AAE"/>
</linearGradient>
</defs>
</svg>
