<svg width="354" height="160" viewBox="0 0 354 160" fill="none" xmlns="http://www.w3.org/2000/svg">
<path d="M162.319 117.992V90.2416L150.339 111.592H147.523L135.491 90.2416V117.992H130.883V81.64H135.747L148.905 105.243L162.115 81.64H166.927V117.992H162.319ZM190.225 118.248C187.835 118.248 185.599 117.736 183.517 116.712C181.469 115.654 179.677 114.254 178.141 112.514C176.605 110.739 175.41 108.759 174.557 106.574C173.704 104.356 173.277 102.069 173.277 99.7136C173.277 97.256 173.704 94.9348 174.557 92.7504C175.41 90.5316 176.587 88.569 178.09 86.8624C179.626 85.1556 181.418 83.8244 183.466 82.8688C185.547 81.8788 187.8 81.384 190.225 81.384C193.739 81.384 196.641 82.1178 198.929 83.5856C201.215 85.0532 202.939 86.9648 204.1 89.32L200.567 91.7776C199.508 89.6612 198.058 88.0912 196.215 87.0672C194.372 86.0432 192.34 85.5312 190.122 85.5312C188.279 85.5312 186.606 85.9236 185.105 86.7088C183.602 87.4938 182.305 88.569 181.213 89.9344C180.155 91.2656 179.336 92.7844 178.756 94.4912C178.209 96.1978 177.937 97.9728 177.937 99.816C177.937 101.762 178.244 103.605 178.858 105.346C179.506 107.052 180.411 108.571 181.572 109.902C182.731 111.199 184.081 112.223 185.617 112.974C187.153 113.725 188.808 114.101 190.583 114.101C192.664 114.101 194.644 113.572 196.522 112.514C198.399 111.455 200.174 109.834 201.847 107.65V112.411C198.57 116.302 194.696 118.248 190.225 118.248ZM201.284 103.349H193.45V99.8672H205.175V117.992H201.284V103.349ZM223.292 118.504C221.279 118.504 219.435 118.146 217.762 117.429C216.124 116.678 214.69 115.654 213.462 114.357C212.267 113.06 211.329 111.575 210.646 109.902C209.998 108.23 209.673 106.455 209.673 104.578C209.673 102.052 210.236 99.7476 211.362 97.6656C212.489 95.5834 214.076 93.928 216.124 92.6992C218.172 91.4362 220.545 90.8048 223.241 90.8048C225.87 90.8048 228.156 91.402 230.102 92.5968C232.082 93.7572 233.55 95.3274 234.505 97.3072L230.102 98.6896C229.419 97.4266 228.463 96.4538 227.234 95.7712C226.006 95.0544 224.641 94.696 223.138 94.696C221.5 94.696 219.999 95.1226 218.633 95.976C217.302 96.8292 216.244 98.0068 215.458 99.5088C214.674 100.976 214.281 102.666 214.281 104.578C214.281 106.455 214.674 108.162 215.458 109.698C216.278 111.199 217.353 112.394 218.684 113.282C220.05 114.169 221.551 114.613 223.19 114.613C224.248 114.613 225.256 114.425 226.211 114.05C227.201 113.674 228.054 113.179 228.771 112.565C229.522 111.916 230.034 111.216 230.306 110.466L234.71 111.797C234.164 113.094 233.327 114.254 232.201 115.278C231.109 116.268 229.794 117.053 228.258 117.634C226.757 118.214 225.102 118.504 223.292 118.504ZM239.918 80.616H244.424V111.08C244.424 112.548 244.628 113.452 245.038 113.794C245.448 114.135 245.942 114.306 246.523 114.306C247.24 114.306 247.922 114.237 248.571 114.101C249.218 113.93 249.765 113.759 250.209 113.589L250.926 117.275C250.175 117.582 249.288 117.838 248.264 118.043C247.24 118.248 246.335 118.35 245.55 118.35C243.809 118.35 242.427 117.855 241.403 116.866C240.412 115.876 239.918 114.493 239.918 112.718V80.616ZM266.139 118.504C264.125 118.504 262.299 118.146 260.66 117.429C259.022 116.678 257.605 115.671 256.411 114.408C255.217 113.111 254.295 111.626 253.646 109.954C252.997 108.281 252.673 106.523 252.673 104.68C252.673 102.803 252.997 101.028 253.646 99.3552C254.295 97.6826 255.217 96.2148 256.411 94.952C257.605 93.6548 259.022 92.648 260.66 91.9312C262.333 91.1802 264.177 90.8048 266.19 90.8048C268.17 90.8048 269.979 91.1802 271.617 91.9312C273.256 92.648 274.673 93.6548 275.867 94.952C277.096 96.2148 278.034 97.6826 278.683 99.3552C279.332 101.028 279.656 102.803 279.656 104.68C279.656 106.523 279.332 108.281 278.683 109.954C278.034 111.626 277.112 113.111 275.918 114.408C274.724 115.671 273.29 116.678 271.617 117.429C269.979 118.146 268.152 118.504 266.139 118.504ZM257.281 104.731C257.281 106.574 257.674 108.247 258.459 109.749C259.278 111.251 260.353 112.445 261.684 113.333C263.016 114.186 264.5 114.613 266.139 114.613C267.777 114.613 269.262 114.169 270.593 113.282C271.959 112.394 273.034 111.199 273.819 109.698C274.638 108.162 275.048 106.472 275.048 104.629C275.048 102.786 274.638 101.113 273.819 99.6112C273.034 98.1092 271.959 96.9146 270.593 96.0272C269.262 95.1396 267.777 94.696 266.139 94.696C264.5 94.696 263.016 95.1568 261.684 96.0784C260.353 96.9658 259.278 98.1604 258.459 99.6624C257.674 101.164 257.281 102.854 257.281 104.731ZM284.859 107.291V91.2656H289.364V106.421C289.364 109.151 289.843 111.199 290.798 112.565C291.754 113.93 293.171 114.613 295.048 114.613C296.276 114.613 297.454 114.357 298.58 113.845C299.741 113.299 300.782 112.531 301.704 111.541C302.625 110.551 303.342 109.373 303.854 108.008V91.2656H308.36V112.872C308.36 113.418 308.462 113.828 308.667 114.101C308.906 114.34 309.281 114.476 309.793 114.51V117.992C309.281 118.06 308.872 118.094 308.564 118.094C308.292 118.128 308.019 118.146 307.745 118.146C306.893 118.146 306.158 117.89 305.544 117.378C304.929 116.831 304.605 116.166 304.571 115.381L304.468 112.258C303.309 114.237 301.738 115.773 299.758 116.866C297.812 117.958 295.68 118.504 293.358 118.504C290.56 118.504 288.443 117.565 287.009 115.688C285.576 113.776 284.859 110.978 284.859 107.291ZM314.125 104.68C314.125 102.154 314.637 99.85 315.661 97.768C316.718 95.6516 318.152 93.962 319.962 92.6992C321.805 91.4362 323.904 90.8048 326.259 90.8048C328.41 90.8048 330.337 91.368 332.045 92.4944C333.751 93.6208 335.082 94.986 336.038 96.5904V80.616H340.544V112.872C340.544 113.418 340.646 113.828 340.851 114.101C341.089 114.34 341.466 114.476 341.978 114.51V117.992C341.124 118.128 340.458 118.197 339.981 118.197C339.092 118.197 338.308 117.89 337.625 117.275C336.977 116.661 336.653 115.978 336.653 115.227V112.974C335.594 114.681 334.177 116.029 332.403 117.019C330.628 118.009 328.785 118.504 326.873 118.504C325.03 118.504 323.323 118.146 321.754 117.429C320.218 116.678 318.868 115.654 317.709 114.357C316.582 113.06 315.694 111.592 315.046 109.954C314.432 108.281 314.125 106.523 314.125 104.68ZM336.038 108.622V100.942C335.629 99.7818 334.963 98.7408 334.042 97.8192C333.12 96.8634 332.078 96.1124 330.918 95.5664C329.792 94.986 328.666 94.696 327.539 94.696C326.208 94.696 324.996 94.986 323.904 95.5664C322.845 96.1124 321.924 96.8634 321.139 97.8192C320.388 98.7408 319.808 99.7988 319.398 100.994C318.989 102.188 318.784 103.434 318.784 104.731C318.784 106.062 319.005 107.325 319.45 108.52C319.927 109.715 320.576 110.773 321.395 111.694C322.248 112.616 323.22 113.333 324.313 113.845C325.44 114.357 326.651 114.613 327.949 114.613C328.768 114.613 329.604 114.459 330.458 114.152C331.345 113.845 332.18 113.418 332.966 112.872C333.751 112.326 334.417 111.694 334.963 110.978C335.508 110.227 335.867 109.442 336.038 108.622Z" fill="black"/>
<path d="M191.896 65.803C187.499 27.4613 157.349 2.56006 121.248 2.56006C87.1253 2.56006 65.1483 23.1997 57.9479 43.668C28.2758 46.2372 2.56 62.3336 2.56 91.6272C2.56 119.889 29.2649 139.587 61.9041 139.587H190.483" stroke="black" stroke-width="4" stroke-linejoin="round"/>
</svg>
