<svg width="22" height="15" viewBox="0 0 22 15" fill="none" xmlns="http://www.w3.org/2000/svg">
<path fill-rule="evenodd" clip-rule="evenodd" d="M7.46038 3.28387C8.40301 1.82734 10.0427 0.861755 11.9091 0.861755C14.7228 0.861755 17.024 3.05626 17.1944 5.82707C17.2506 5.82494 17.307 5.82386 17.3636 5.82386C19.7862 5.82386 21.75 7.7877 21.75 10.2102C21.75 12.6327 19.7862 14.5966 17.3636 14.5966L6 14.5966C2.82436 14.5966 0.25 12.0222 0.25 8.84659C0.25 5.67095 2.82436 3.09659 6 3.09659C6.50391 3.09659 6.99348 3.16158 7.46038 3.28387ZM11.9091 2.36176C10.404 2.36176 9.1021 3.23773 8.48806 4.51102C8.31801 4.86363 7.90536 5.02614 7.54054 4.88418C7.0639 4.69871 6.54477 4.59659 6 4.59659C3.65279 4.59659 1.75 6.49937 1.75 8.84659C1.75 11.1938 3.65279 13.0966 6 13.0966L17.3627 13.0966C18.9568 13.0966 20.25 11.8043 20.25 10.2102C20.25 8.61613 18.9577 7.32386 17.3636 7.32386C17.1042 7.32386 16.8539 7.35789 16.6164 7.42133C16.3762 7.48549 16.1198 7.42643 15.9319 7.26366C15.7439 7.10089 15.6489 6.85556 15.6781 6.60865C15.6955 6.46089 15.7045 6.31026 15.7045 6.15721C15.7045 4.06104 14.0053 2.36176 11.9091 2.36176Z" fill="black"/>
<path d="M11.1643 6.14524L12.1895 7.42669L8.75 7.42669C8.33579 7.42669 8 7.76247 8 8.17669C8 8.5909 8.33579 8.92669 8.75 8.92669H12.1896L11.1643 10.2082C10.9056 10.5316 10.958 11.0036 11.2815 11.2624C11.6049 11.5211 12.0769 11.4687 12.3357 11.1452L14.3335 8.64794C14.4376 8.51916 14.5 8.17669 14.5 8.17669L14.3308 7.70212L12.3357 5.20819C11.0042 4.5649 11 5.56485 11.1643 6.14524Z" fill="black"/>
</svg>
