<svg width="75" height="89" viewBox="0 0 75 89" fill="none" xmlns="http://www.w3.org/2000/svg">
<g opacity="0.3">
<path opacity="0.3" d="M51.7921 18.2628C49.7648 18.2608 47.8211 17.4546 46.3875 16.021C44.954 14.5875 44.1479 12.6438 44.1459 10.6165V0H9.97868C7.33216 0 4.7941 1.05135 2.92273 2.92273C1.05135 4.7941 0 7.33216 0 9.97867V70.1327C0 72.7792 1.05135 75.3174 2.92273 77.1888C4.7941 79.0601 7.33216 80.1115 9.97868 80.1115H50.9912C52.3019 80.112 53.5999 79.8542 54.811 79.3529C56.0221 78.8517 57.1226 78.1168 58.0496 77.1901C58.9766 76.2635 59.7119 75.1633 60.2136 73.9524C60.7153 72.7414 60.9736 71.4435 60.9736 70.1327V18.2628H51.7921Z" fill="#7A11E3"/>
</g>
<path d="M60.9737 18.2628H51.7922C49.7649 18.2608 47.8212 17.4546 46.3877 16.021C44.9541 14.5875 44.148 12.6438 44.146 10.6165V0L60.9737 18.2628Z" fill="#7A11E3"/>
<path d="M68.2084 63.2653H21.8413C18.5522 63.2653 15.886 65.9316 15.886 69.2206V83.0447C15.886 86.3337 18.5522 89 21.8413 89H68.2084C71.4974 89 74.1637 86.3337 74.1637 83.0447V69.2206C74.1637 65.9316 71.4974 63.2653 68.2084 63.2653Z" fill="#7A11E3"/>
<path d="M32.187 79.1251V81.8209H29.3948V79.1251H32.187Z" fill="white"/>
<path d="M36.2884 77.9088V81.8209H33.5925V70.6705H37.9608C39.2858 70.6705 40.2944 70.9992 40.9866 71.6568C41.338 72.0014 41.6125 72.4165 41.7921 72.8747C41.9717 73.333 42.0523 73.824 42.0286 74.3155C42.0404 74.9636 41.8804 75.6033 41.5651 76.1696C41.2409 76.7236 40.7595 77.169 40.182 77.449C39.4879 77.7786 38.725 77.9376 37.9571 77.9126L36.2884 77.9088ZM39.2845 74.3155C39.2845 73.3267 38.7432 72.8323 37.6604 72.8323H36.2884V75.7358H37.6604C38.7432 75.7457 39.2845 75.2723 39.2845 74.3155Z" fill="white"/>
<path d="M46.0519 77.9088V81.8209H43.3523V70.6705H47.7205C49.0481 70.6705 50.058 70.9992 50.7502 71.6568C51.1016 72.0014 51.376 72.4165 51.5556 72.8747C51.7351 73.333 51.8158 73.824 51.7921 74.3155C51.8043 74.9642 51.643 75.6043 51.3249 76.1696C51.0031 76.7242 50.5227 77.1699 49.9455 77.449C49.2514 77.7786 48.4885 77.9376 47.7205 77.9126L46.0519 77.9088ZM49.0481 74.3155C49.0481 73.3267 48.5067 72.8323 47.4239 72.8323H46.0519V75.7358H47.4239C48.5067 75.7457 49.0481 75.2723 49.0481 74.3155Z" fill="white"/>
<path d="M61.1294 70.6705V72.8175H58.0997V81.8209H55.3891V72.8175H52.3892V70.6705H61.1294Z" fill="white"/>
<path d="M27.6963 31.0485H11.4953C11.1271 31.0485 10.774 30.9026 10.5133 30.6426C10.2526 30.3826 10.1057 30.0298 10.1047 29.6617C10.1047 29.2929 10.2513 28.9392 10.512 28.6784C10.7728 28.4176 11.1265 28.2711 11.4953 28.2711H27.6815C28.0503 28.2711 28.404 28.4176 28.6648 28.6784C28.9256 28.9392 29.072 29.2929 29.072 29.6617C29.0711 30.0273 28.9262 30.3778 28.6687 30.6373C28.4112 30.8969 28.0619 31.0446 27.6963 31.0485V31.0485Z" fill="#7A11E3"/>
<path d="M27.6963 39.3438H11.4953C11.1271 39.3438 10.774 39.1978 10.5133 38.9378C10.2526 38.6778 10.1057 38.3251 10.1047 37.957C10.1047 37.5882 10.2513 37.2344 10.512 36.9736C10.7728 36.7128 11.1265 36.5664 11.4953 36.5664H27.6815C28.0503 36.5664 28.404 36.7128 28.6648 36.9736C28.9256 37.2344 29.072 37.5882 29.072 37.957C29.0711 38.3226 28.9262 38.6731 28.6687 38.9326C28.4112 39.1922 28.0619 39.3399 27.6963 39.3438V39.3438Z" fill="#7A11E3"/>
<path d="M27.6963 47.639H11.4953C11.1265 47.639 10.7728 47.4924 10.512 47.2317C10.2513 46.9709 10.1047 46.6172 10.1047 46.2484C10.1077 45.8815 10.2555 45.5307 10.5159 45.2723C10.7764 45.0139 11.1284 44.8689 11.4953 44.869H27.6815C28.0496 44.869 28.4028 45.0149 28.6635 45.2749C28.9241 45.5349 29.0711 45.8877 29.072 46.2558C29.0701 46.6208 28.9248 46.9704 28.6675 47.2291C28.4101 47.4879 28.0613 47.6351 27.6963 47.639V47.639Z" fill="#7A11E3"/>
<path d="M27.6963 55.9342H11.4953C11.1265 55.9342 10.7728 55.7877 10.512 55.5269C10.2513 55.2661 10.1047 54.9125 10.1047 54.5437C10.1057 54.1755 10.2526 53.8227 10.5133 53.5627C10.774 53.3028 11.1271 53.1568 11.4953 53.1568H27.6815C28.0496 53.1568 28.4028 53.3028 28.6635 53.5627C28.9241 53.8227 29.0711 54.1755 29.072 54.5437C29.0721 54.9099 28.9277 55.2613 28.6701 55.5217C28.4125 55.782 28.0625 55.9303 27.6963 55.9342V55.9342Z" fill="#7A11E3"/>
<path d="M43.4783 43.7565V31.4305C40.4754 31.5891 37.6477 32.8935 35.578 35.075C33.5083 37.2564 32.3543 40.1487 32.3538 43.1558C32.3533 44.6976 32.6566 46.2245 33.2464 47.6491C33.8362 49.0737 34.701 50.3681 35.7912 51.4584C36.8815 52.5487 38.176 53.4134 39.6006 54.0033C41.0251 54.5931 42.552 54.8964 44.0938 54.8959C47.1008 54.8962 49.9932 53.7423 52.1742 51.6723C54.3553 49.6024 55.6587 46.7742 55.8154 43.7714L43.4783 43.7565Z" fill="#7A11E3"/>
<path d="M45.7256 30.4923V41.6168H56.8501C56.7016 38.7145 55.4818 35.9705 53.4269 33.9156C51.3719 31.8607 48.6279 30.6409 45.7256 30.4923V30.4923Z" fill="#7A11E3"/>
</svg>
