<svg width="16" height="16" viewBox="0 0 16 16" fill="none" xmlns="http://www.w3.org/2000/svg">
<path d="M11.5 9.99998C11.1257 10.0019 10.7566 10.0877 10.42 10.2513C10.0834 10.4149 9.78776 10.6519 9.55497 10.945L5.89997 8.65998C6.03318 8.23006 6.03318 7.7699 5.89997 7.33998L9.55497 5.05498C9.92594 5.51434 10.4475 5.82757 11.0273 5.93918C11.6071 6.0508 12.2077 5.9536 12.7227 5.66479C13.2377 5.37599 13.6339 4.91423 13.841 4.3613C14.0482 3.80838 14.0529 3.19999 13.8544 2.6439C13.656 2.08781 13.2671 1.61991 12.7567 1.3231C12.2462 1.02628 11.6472 0.919705 11.0657 1.02225C10.4843 1.12479 9.95785 1.42983 9.57975 1.88334C9.20164 2.33685 8.99626 2.90954 8.99997 3.49998C9.00233 3.72357 9.03599 3.94573 9.09997 4.15998L5.44497 6.44498C5.12229 6.03877 4.68124 5.743 4.18295 5.59868C3.68465 5.45435 3.1538 5.46861 2.66398 5.63949C2.17415 5.81036 1.74961 6.12938 1.44921 6.55233C1.14881 6.97528 0.987427 7.48121 0.987427 7.99998C0.987427 8.51875 1.14881 9.02468 1.44921 9.44763C1.74961 9.87058 2.17415 10.1896 2.66398 10.3605C3.1538 10.5313 3.68465 10.5456 4.18295 10.4013C4.68124 10.257 5.12229 9.96119 5.44497 9.55498L9.09997 11.84C9.03599 12.0542 9.00233 12.2764 8.99997 12.5C8.99997 12.9944 9.14659 13.4778 9.42129 13.8889C9.696 14.3 10.0864 14.6205 10.5433 14.8097C11.0001 14.9989 11.5027 15.0484 11.9877 14.9519C12.4726 14.8555 12.9181 14.6174 13.2677 14.2677C13.6174 13.9181 13.8555 13.4727 13.9519 12.9877C14.0484 12.5028 13.9989 12.0001 13.8097 11.5433C13.6204 11.0865 13.3 10.696 12.8889 10.4213C12.4778 10.1466 11.9944 9.99998 11.5 9.99998V9.99998ZM11.5 1.99998C11.7966 1.99998 12.0867 2.08795 12.3333 2.25278C12.58 2.4176 12.7723 2.65187 12.8858 2.92595C12.9993 3.20004 13.029 3.50164 12.9711 3.79262C12.9133 4.08359 12.7704 4.35086 12.5606 4.56064C12.3509 4.77042 12.0836 4.91328 11.7926 4.97116C11.5016 5.02904 11.2 4.99933 10.9259 4.8858C10.6519 4.77227 10.4176 4.58001 10.2528 4.33334C10.0879 4.08666 9.99997 3.79665 9.99997 3.49998C9.99997 3.10216 10.158 2.72062 10.4393 2.43932C10.7206 2.15802 11.1021 1.99998 11.5 1.99998V1.99998ZM3.49997 9.49998C3.2033 9.49998 2.91329 9.41201 2.66661 9.24718C2.41994 9.08236 2.22768 8.84809 2.11415 8.57401C2.00062 8.29992 1.97091 7.99832 2.02879 7.70734C2.08667 7.41637 2.22953 7.1491 2.43931 6.93932C2.64909 6.72954 2.91636 6.58668 3.20733 6.5288C3.49831 6.47092 3.79991 6.50063 4.07399 6.61416C4.34808 6.72769 4.58235 6.91995 4.74717 7.16662C4.912 7.4133 4.99997 7.70331 4.99997 7.99998C4.99997 8.3978 4.84193 8.77934 4.56063 9.06064C4.27933 9.34194 3.89779 9.49998 3.49997 9.49998ZM11.5 14C11.2033 14 10.9133 13.912 10.6666 13.7472C10.4199 13.5824 10.2277 13.3481 10.1141 13.074C10.0006 12.7999 9.97091 12.4983 10.0288 12.2073C10.0867 11.9164 10.2295 11.6491 10.4393 11.4393C10.6491 11.2295 10.9164 11.0867 11.2073 11.0288C11.4983 10.9709 11.7999 11.0006 12.074 11.1142C12.3481 11.2277 12.5824 11.42 12.7472 11.6666C12.912 11.9133 13 12.2033 13 12.5C13 12.8978 12.8419 13.2793 12.5606 13.5606C12.2793 13.8419 11.8978 14 11.5 14V14Z" fill="black"/>
</svg>
