<svg width="40" height="40" viewBox="0 0 40 40" fill="none" xmlns="http://www.w3.org/2000/svg">
<rect width="40" height="40" rx="7" fill="#F7F7F5"/>
<path d="M24.3749 21.1667C24.3749 20.6834 23.9832 20.2917 23.4999 20.2917H16.4999C16.0167 20.2917 15.6249 20.6834 15.6249 21.1667C15.6249 21.6499 16.0167 22.0417 16.4999 22.0417H23.4999C23.9832 22.0417 24.3749 21.6499 24.3749 21.1667Z" fill="#5D5B57"/>
<path d="M24.3749 25.8333C24.3749 25.3501 23.9832 24.9583 23.4999 24.9583H16.4999C16.0167 24.9583 15.6249 25.3501 15.6249 25.8333C15.6249 26.3166 16.0167 26.7083 16.4999 26.7083H23.4999C23.9832 26.7083 24.3749 26.3166 24.3749 25.8333Z" fill="#5D5B57"/>
<path fill-rule="evenodd" clip-rule="evenodd" d="M14.1666 8.625C12.3947 8.625 10.9583 10.0614 10.9583 11.8333V28.1667C10.9583 29.9386 12.3947 31.375 14.1666 31.375H25.8333C27.6052 31.375 29.0416 29.9386 29.0416 28.1667V15.2956C29.0416 14.8514 28.8967 14.4193 28.6289 14.0648L25.1315 9.43588C24.7456 8.92518 24.1426 8.625 23.5025 8.625H14.1666ZM12.7083 11.8333C12.7083 11.0279 13.3612 10.375 14.1666 10.375H22.6249V15.5049C22.6249 15.9881 23.0167 16.3799 23.4999 16.3799H27.2916V28.1667C27.2916 28.9721 26.6387 29.625 25.8333 29.625H14.1666C13.3612 29.625 12.7083 28.9721 12.7083 28.1667V11.8333Z" fill="#5D5B57"/>
<path d="M14.6633 15.9619C14.6233 16.0029 14.5735 16.0234 14.5139 16.0234C14.4543 16.0234 14.4041 16.0029 14.363 15.9619C14.322 15.9209 14.3015 15.8706 14.3015 15.811C14.3015 15.7524 14.322 15.7026 14.363 15.6616C14.4041 15.6206 14.4543 15.6001 14.5139 15.6001C14.5735 15.6001 14.6233 15.6206 14.6633 15.6616C14.7043 15.7026 14.7249 15.7524 14.7249 15.811C14.7249 15.8706 14.7043 15.9209 14.6633 15.9619ZM15.5144 16.0308C15.3171 16.0308 15.1609 15.9585 15.0457 15.814C14.9304 15.6694 14.8728 15.4727 14.8728 15.2236V15.2222C14.8728 14.9731 14.9304 14.7764 15.0457 14.6318C15.1619 14.4873 15.3176 14.415 15.5129 14.415C15.6223 14.415 15.7195 14.4414 15.8044 14.4941C15.8894 14.5469 15.9539 14.6201 15.9978 14.7139H16.0066V13.8862H16.3713V16H16.0066V15.7363H15.9978C15.9529 15.8291 15.8884 15.9014 15.8044 15.9531C15.7214 16.0049 15.6248 16.0308 15.5144 16.0308ZM15.6243 15.7231C15.7375 15.7231 15.8293 15.6777 15.8997 15.5869C15.9709 15.4961 16.0066 15.375 16.0066 15.2236V15.2222C16.0066 15.0718 15.9709 14.9512 15.8997 14.8604C15.8293 14.7686 15.7375 14.7227 15.6243 14.7227C15.5081 14.7227 15.4158 14.7676 15.3474 14.8574C15.2791 14.9463 15.2449 15.0679 15.2449 15.2222V15.2236C15.2449 15.3779 15.2786 15.5 15.3459 15.5898C15.4143 15.6787 15.5071 15.7231 15.6243 15.7231ZM17.9124 15.8154C17.7766 15.959 17.594 16.0308 17.3645 16.0308C17.135 16.0308 16.9524 15.959 16.8167 15.8154C16.6809 15.6709 16.613 15.4736 16.613 15.2236V15.2207C16.613 14.9736 16.6809 14.7778 16.8167 14.6333C16.9534 14.4878 17.1355 14.415 17.363 14.415C17.5916 14.415 17.7742 14.4873 17.9109 14.6318C18.0476 14.7764 18.116 14.9727 18.116 15.2207V15.2236C18.116 15.4736 18.0481 15.6709 17.9124 15.8154ZM17.366 15.7363C17.4822 15.7363 17.574 15.6914 17.6414 15.6016C17.7097 15.5107 17.7439 15.3848 17.7439 15.2236V15.2207C17.7439 15.0605 17.7097 14.9355 17.6414 14.8457C17.573 14.7559 17.4802 14.7109 17.363 14.7109C17.2478 14.7109 17.156 14.7563 17.0876 14.8472C17.0193 14.937 16.9851 15.0615 16.9851 15.2207V15.2236C16.9851 15.3857 17.0193 15.5117 17.0876 15.6016C17.156 15.6914 17.2488 15.7363 17.366 15.7363ZM19.0359 16.0308C18.8054 16.0308 18.6228 15.9585 18.488 15.814C18.3533 15.6685 18.2859 15.4712 18.2859 15.2222V15.2207C18.2859 14.9736 18.3533 14.7778 18.488 14.6333C18.6238 14.4878 18.8049 14.415 19.0315 14.415C19.2297 14.415 19.3904 14.4697 19.5134 14.5791C19.6375 14.6885 19.7053 14.8237 19.717 14.9849L19.7185 14.9966H19.3743L19.3713 14.9834C19.3547 14.9033 19.3176 14.8379 19.26 14.7871C19.2024 14.7363 19.1277 14.7109 19.0359 14.7109C18.9207 14.7109 18.8289 14.7568 18.7605 14.8486C18.6921 14.9404 18.658 15.0654 18.658 15.2236V15.2251C18.658 15.3853 18.6921 15.5107 18.7605 15.6016C18.8289 15.6914 18.9211 15.7363 19.0374 15.7363C19.1272 15.7363 19.2009 15.7119 19.2585 15.6631C19.3171 15.6143 19.3552 15.5479 19.3728 15.4639L19.3757 15.4507H19.72L19.7185 15.4609C19.7039 15.626 19.6345 15.7622 19.5105 15.8696C19.3865 15.9771 19.2283 16.0308 19.0359 16.0308ZM19.8167 16L20.3191 15.2251L19.8225 14.4473H20.2327L20.5447 14.9922H20.5535L20.8625 14.4473H21.261L20.7615 15.2148L21.2566 16H20.8582L20.5359 15.4434H20.5271L20.2063 16H19.8167Z" fill="#5D5B57"/>
</svg>
