<svg width="40" height="40" viewBox="0 0 40 40" fill="none" xmlns="http://www.w3.org/2000/svg">
<rect width="40" height="40" rx="7" fill="#F7F7F5"/>
<path d="M21.1666 19.4167C21.1666 18.4502 21.9501 17.6667 22.9166 17.6667C23.8831 17.6667 24.6666 18.4502 24.6666 19.4167C24.6666 20.3832 23.8831 21.1667 22.9166 21.1667C21.9501 21.1667 21.1666 20.3832 21.1666 19.4167Z" fill="#5D5B57"/>
<path d="M18.9919 21.2863C18.832 21.0304 18.5516 20.875 18.2499 20.875C17.9482 20.875 17.6678 21.0304 17.5079 21.2863L14.5913 25.9529C14.4227 26.2227 14.4137 26.5626 14.5679 26.8408C14.7221 27.119 15.0152 27.2917 15.3333 27.2917H24.6666C24.998 27.2917 25.301 27.1044 25.4492 26.808C25.5974 26.5115 25.5654 26.1568 25.3666 25.8917L23.6166 23.5583C23.4513 23.338 23.192 23.2083 22.9166 23.2083C22.6412 23.2083 22.3818 23.338 22.2166 23.5583L21.2323 24.8708L18.9919 21.2863Z" fill="#5D5B57"/>
<path fill-rule="evenodd" clip-rule="evenodd" d="M14.1666 8.625C12.3947 8.625 10.9583 10.0614 10.9583 11.8333V28.1667C10.9583 29.9386 12.3947 31.375 14.1666 31.375H25.8333C27.6052 31.375 29.0416 29.9386 29.0416 28.1667V15.2956C29.0416 14.8514 28.8967 14.4193 28.6289 14.0648L25.1315 9.43588C24.7456 8.92518 24.1426 8.625 23.5025 8.625H14.1666ZM12.7083 11.8333C12.7083 11.0279 13.3612 10.375 14.1666 10.375H22.6249V15.5049C22.6249 15.9881 23.0167 16.3799 23.4999 16.3799H27.2916V28.1667C27.2916 28.9721 26.6387 29.625 25.8333 29.625H14.1666C13.3612 29.625 12.7083 28.9721 12.7083 28.1667V11.8333Z" fill="#5D5B57"/>
<path d="M14.6633 15.9619C14.6233 16.0029 14.5735 16.0234 14.5139 16.0234C14.4543 16.0234 14.4041 16.0029 14.363 15.9619C14.322 15.9209 14.3015 15.8706 14.3015 15.811C14.3015 15.7524 14.322 15.7026 14.363 15.6616C14.4041 15.6206 14.4543 15.6001 14.5139 15.6001C14.5735 15.6001 14.6233 15.6206 14.6633 15.6616C14.7043 15.7026 14.7249 15.7524 14.7249 15.811C14.7249 15.8706 14.7043 15.9209 14.6633 15.9619ZM15.3445 14.166C15.3054 14.2051 15.2576 14.2246 15.2009 14.2246C15.1443 14.2246 15.0959 14.2051 15.0559 14.166C15.0168 14.127 14.9973 14.0801 14.9973 14.0254C14.9973 13.9697 15.0168 13.9224 15.0559 13.8833C15.0959 13.8442 15.1443 13.8247 15.2009 13.8247C15.2576 13.8247 15.3054 13.8442 15.3445 13.8833C15.3845 13.9224 15.4045 13.9697 15.4045 14.0254C15.4045 14.0801 15.3845 14.127 15.3445 14.166ZM14.8538 16.5171C14.8157 16.5171 14.7854 16.5156 14.7629 16.5127V16.2271C14.7678 16.2271 14.7756 16.2271 14.7864 16.2271C14.7971 16.228 14.8054 16.2285 14.8113 16.2285C14.8875 16.2285 14.9412 16.2144 14.9724 16.186C15.0037 16.1587 15.0193 16.1094 15.0193 16.0381V14.4473H15.384V16.0439C15.384 16.3594 15.2073 16.5171 14.8538 16.5171ZM15.6931 16.5127V14.4473H16.0579V14.7153H16.0652C16.1101 14.6206 16.1741 14.5469 16.2571 14.4941C16.3411 14.4414 16.4377 14.415 16.5471 14.415C16.7444 14.415 16.9006 14.4873 17.0159 14.6318C17.1321 14.7764 17.1902 14.9736 17.1902 15.2236V15.2251C17.1902 15.4731 17.1326 15.6694 17.0173 15.814C16.9021 15.9585 16.7468 16.0308 16.5515 16.0308C16.4421 16.0308 16.3445 16.0049 16.2585 15.9531C16.1736 15.9014 16.1091 15.8296 16.0652 15.7378H16.0579V16.5127H15.6931ZM16.4387 15.7231C16.5549 15.7231 16.6472 15.6787 16.7156 15.5898C16.7839 15.5 16.8181 15.3784 16.8181 15.2251V15.2236C16.8181 15.0684 16.7839 14.9463 16.7156 14.8574C16.6482 14.7676 16.5559 14.7227 16.4387 14.7227C16.3254 14.7227 16.2332 14.7686 16.1619 14.8604C16.0906 14.9512 16.0549 15.0723 16.0549 15.2236V15.2251C16.0549 15.3755 16.0906 15.4961 16.1619 15.5869C16.2332 15.6777 16.3254 15.7231 16.4387 15.7231ZM18.1248 16.5435C17.9246 16.5435 17.761 16.5029 17.634 16.4219C17.5071 16.3418 17.4324 16.2388 17.4099 16.1128L17.407 16.0996H17.7659L17.7703 16.1113C17.7908 16.1582 17.8318 16.1958 17.8933 16.2241C17.9558 16.2534 18.033 16.2681 18.1248 16.2681C18.2419 16.2681 18.3323 16.2393 18.3958 16.1816C18.4602 16.124 18.4924 16.0449 18.4924 15.9443V15.7202H18.4851C18.4412 15.8042 18.3767 15.8706 18.2917 15.9194C18.2068 15.9673 18.1096 15.9912 18.0002 15.9912C17.8049 15.9912 17.6492 15.9214 17.533 15.7817C17.4177 15.6411 17.3601 15.4502 17.3601 15.209V15.2075C17.3601 14.9634 17.4182 14.7705 17.5344 14.6289C17.6516 14.4863 17.8088 14.415 18.0061 14.415C18.1135 14.415 18.2087 14.4414 18.2917 14.4941C18.3748 14.5469 18.4387 14.6191 18.4836 14.7109H18.4924V14.4473H18.8572V15.9561C18.8572 16.1328 18.7908 16.2749 18.658 16.3823C18.5261 16.4897 18.3484 16.5435 18.1248 16.5435ZM18.1145 15.71C18.2288 15.71 18.3206 15.6655 18.3899 15.5767C18.4592 15.4868 18.4939 15.3667 18.4939 15.2163V15.2148C18.4939 15.0654 18.4587 14.9463 18.3884 14.8574C18.3191 14.7676 18.2278 14.7227 18.1145 14.7227C17.9973 14.7227 17.9041 14.7671 17.8347 14.856C17.7664 14.9438 17.7322 15.063 17.7322 15.2134V15.2148C17.7322 15.3672 17.7664 15.4878 17.8347 15.5767C17.9041 15.6655 17.9973 15.71 18.1145 15.71Z" fill="#5D5B57"/>
</svg>
