<svg width="40" height="40" viewBox="0 0 40 40" fill="none" xmlns="http://www.w3.org/2000/svg">
<rect width="40" height="40" rx="7" fill="#F7F7F5"/>
<path fill-rule="evenodd" clip-rule="evenodd" d="M10.9583 11.8333C10.9583 10.0614 12.3947 8.625 14.1666 8.625H23.4846C24.1423 8.625 24.7597 8.94184 25.1432 9.47614L28.6585 14.3737C28.9076 14.7207 29.0416 15.1371 29.0416 15.5642V28.1667C29.0416 29.9386 27.6052 31.375 25.8333 31.375H14.1666C12.3947 31.375 10.9583 29.9386 10.9583 28.1667V11.8333ZM14.1666 10.375C13.3612 10.375 12.7083 11.0279 12.7083 11.8333V28.1667C12.7083 28.9721 13.3612 29.625 14.1666 29.625H25.8333C26.6387 29.625 27.2916 28.9721 27.2916 28.1667V16.3799H23.4999C23.0167 16.3799 22.6249 15.9881 22.6249 15.5049V10.375H14.1666Z" fill="#5D5B57"/>
<path fill-rule="evenodd" clip-rule="evenodd" d="M19.5 18.8438C19.3447 18.8438 19.2188 18.9697 19.2188 19.125V20.625C19.2188 20.625 19.2188 20.625 19.2188 20.625L19.2188 23.3473C18.9408 23.1112 18.5808 22.9688 18.1875 22.9688C17.3073 22.9688 16.5938 23.6823 16.5938 24.5625C16.5938 25.4427 17.3073 26.1562 18.1875 26.1562C19.0677 26.1562 19.7812 25.4427 19.7812 24.5625C19.7812 24.5179 19.7794 24.4738 19.7758 24.4302C19.7794 24.4123 19.7813 24.3939 19.7813 24.375L19.7812 20.9062H21.75C22.3195 20.9062 22.7812 20.4445 22.7812 19.875C22.7812 19.3055 22.3195 18.8438 21.75 18.8438H19.5ZM19.7812 20.3438H21.75C22.0089 20.3438 22.2188 20.1339 22.2188 19.875C22.2188 19.6161 22.0089 19.4062 21.75 19.4062H19.7812V20.3438ZM18.1875 23.5312C17.618 23.5312 17.1562 23.993 17.1562 24.5625C17.1562 25.132 17.618 25.5938 18.1875 25.5938C18.757 25.5938 19.2188 25.132 19.2188 24.5625C19.2188 23.993 18.757 23.5312 18.1875 23.5312Z" fill="#5D5B57"/>
<path d="M15.4966 16.9619C15.4565 17.0029 15.4067 17.0234 15.3472 17.0234C15.2876 17.0234 15.2373 17.0029 15.1963 16.9619C15.1553 16.9209 15.1348 16.8706 15.1348 16.811C15.1348 16.7524 15.1553 16.7026 15.1963 16.6616C15.2373 16.6206 15.2876 16.6001 15.3472 16.6001C15.4067 16.6001 15.4565 16.6206 15.4966 16.6616C15.5376 16.7026 15.5581 16.7524 15.5581 16.811C15.5581 16.8706 15.5376 16.9209 15.4966 16.9619ZM15.8438 17V15.4473H16.2085V15.6963H16.2158C16.249 15.6104 16.3037 15.542 16.3799 15.4912C16.4561 15.4404 16.5449 15.415 16.6465 15.415C16.7549 15.415 16.8467 15.4424 16.9219 15.4971C16.9971 15.5518 17.0488 15.6289 17.0771 15.7285H17.0859C17.123 15.6318 17.1846 15.5557 17.2705 15.5C17.3574 15.4434 17.457 15.415 17.5693 15.415C17.7217 15.415 17.8442 15.4629 17.937 15.5586C18.0298 15.6533 18.0762 15.7783 18.0762 15.9336V17H17.7114V16.0244C17.7114 15.9287 17.687 15.8545 17.6382 15.8018C17.5903 15.749 17.522 15.7227 17.4331 15.7227C17.3452 15.7227 17.2739 15.7524 17.2192 15.812C17.1646 15.8706 17.1372 15.9468 17.1372 16.0405V17H16.7827V16.0054C16.7827 15.9185 16.7578 15.8496 16.708 15.7988C16.6592 15.748 16.5923 15.7227 16.5073 15.7227C16.4194 15.7227 16.3477 15.7534 16.292 15.8149C16.2363 15.8765 16.2085 15.9546 16.2085 16.0493V17H15.8438ZM18.3691 17.5127V15.4473H18.7339V15.7153H18.7412C18.7861 15.6206 18.8501 15.5469 18.9331 15.4941C19.0171 15.4414 19.1138 15.415 19.2231 15.415C19.4204 15.415 19.5767 15.4873 19.6919 15.6318C19.8081 15.7764 19.8662 15.9736 19.8662 16.2236V16.2251C19.8662 16.4731 19.8086 16.6694 19.6934 16.814C19.5781 16.9585 19.4229 17.0308 19.2275 17.0308C19.1182 17.0308 19.0205 17.0049 18.9346 16.9531C18.8496 16.9014 18.7852 16.8296 18.7412 16.7378H18.7339V17.5127H18.3691ZM19.1147 16.7231C19.231 16.7231 19.3232 16.6787 19.3916 16.5898C19.46 16.5 19.4941 16.3784 19.4941 16.2251V16.2236C19.4941 16.0684 19.46 15.9463 19.3916 15.8574C19.3242 15.7676 19.2319 15.7227 19.1147 15.7227C19.0015 15.7227 18.9092 15.7686 18.8379 15.8604C18.7666 15.9512 18.731 16.0723 18.731 16.2236V16.2251C18.731 16.3755 18.7666 16.4961 18.8379 16.5869C18.9092 16.6777 19.0015 16.7231 19.1147 16.7231ZM21.1143 17V16.5942H20.0596V16.272L20.937 14.8862H21.4746V16.2837H21.7617V16.5942H21.4746V17H21.1143ZM20.3994 16.2925H21.1201V15.1719H21.1113L20.3994 16.2822V16.2925Z" fill="#5D5B57"/>
</svg>
