<svg width="40" height="40" viewBox="0 0 40 40" fill="none" xmlns="http://www.w3.org/2000/svg">
<rect width="40" height="40" rx="7" fill="#F7F7F5"/>
<path d="M24.3749 21.1667C24.3749 20.6834 23.9832 20.2917 23.4999 20.2917H16.4999C16.0167 20.2917 15.6249 20.6834 15.6249 21.1667C15.6249 21.6499 16.0167 22.0417 16.4999 22.0417H23.4999C23.9832 22.0417 24.3749 21.6499 24.3749 21.1667Z" fill="#5D5B57"/>
<path d="M24.3749 25.8333C24.3749 25.3501 23.9832 24.9583 23.4999 24.9583H16.4999C16.0167 24.9583 15.6249 25.3501 15.6249 25.8333C15.6249 26.3166 16.0167 26.7083 16.4999 26.7083H23.4999C23.9832 26.7083 24.3749 26.3166 24.3749 25.8333Z" fill="#5D5B57"/>
<path fill-rule="evenodd" clip-rule="evenodd" d="M14.1666 8.625C12.3947 8.625 10.9583 10.0614 10.9583 11.8333V28.1667C10.9583 29.9386 12.3947 31.375 14.1666 31.375H25.8333C27.6052 31.375 29.0416 29.9386 29.0416 28.1667V15.2956C29.0416 14.8514 28.8967 14.4193 28.6289 14.0648L25.1315 9.43588C24.7456 8.92518 24.1426 8.625 23.5025 8.625H14.1666ZM12.7083 11.8333C12.7083 11.0279 13.3612 10.375 14.1666 10.375H22.6249V15.5049C22.6249 15.9881 23.0167 16.3799 23.4999 16.3799H27.2916V28.1667C27.2916 28.9721 26.6387 29.625 25.8333 29.625H14.1666C13.3612 29.625 12.7083 28.9721 12.7083 28.1667V11.8333Z" fill="#5D5B57"/>
<path d="M14.6633 15.9619C14.6233 16.0029 14.5735 16.0234 14.5139 16.0234C14.4543 16.0234 14.4041 16.0029 14.363 15.9619C14.322 15.9209 14.3015 15.8706 14.3015 15.811C14.3015 15.7524 14.322 15.7026 14.363 15.6616C14.4041 15.6206 14.4543 15.6001 14.5139 15.6001C14.5735 15.6001 14.6233 15.6206 14.6633 15.6616C14.7043 15.7026 14.7249 15.7524 14.7249 15.811C14.7249 15.8706 14.7043 15.9209 14.6633 15.9619ZM15.0105 16.5127V14.4473H15.3752V14.7153H15.3826C15.4275 14.6206 15.4915 14.5469 15.5745 14.4941C15.6584 14.4414 15.7551 14.415 15.8645 14.415C16.0618 14.415 16.218 14.4873 16.3333 14.6318C16.4495 14.7764 16.5076 14.9736 16.5076 15.2236V15.2251C16.5076 15.4731 16.45 15.6694 16.3347 15.814C16.2195 15.9585 16.0642 16.0308 15.8689 16.0308C15.7595 16.0308 15.6619 16.0049 15.5759 15.9531C15.491 15.9014 15.4265 15.8296 15.3826 15.7378H15.3752V16.5127H15.0105ZM15.7561 15.7231C15.8723 15.7231 15.9646 15.6787 16.033 15.5898C16.1013 15.5 16.1355 15.3784 16.1355 15.2251V15.2236C16.1355 15.0684 16.1013 14.9463 16.033 14.8574C15.9656 14.7676 15.8733 14.7227 15.7561 14.7227C15.6428 14.7227 15.5505 14.7686 15.4792 14.8604C15.408 14.9512 15.3723 15.0723 15.3723 15.2236V15.2251C15.3723 15.3755 15.408 15.4961 15.4792 15.5869C15.5505 15.6777 15.6428 15.7231 15.7561 15.7231ZM17.3191 16.0308C17.1218 16.0308 16.9656 15.9585 16.8503 15.814C16.7351 15.6694 16.6775 15.4727 16.6775 15.2236V15.2222C16.6775 14.9731 16.7351 14.7764 16.8503 14.6318C16.9666 14.4873 17.1223 14.415 17.3176 14.415C17.427 14.415 17.5242 14.4414 17.6091 14.4941C17.6941 14.5469 17.7585 14.6201 17.8025 14.7139H17.8113V13.8862H18.176V16H17.8113V15.7363H17.8025C17.7576 15.8291 17.6931 15.9014 17.6091 15.9531C17.5261 16.0049 17.4294 16.0308 17.3191 16.0308ZM17.429 15.7231C17.5422 15.7231 17.634 15.6777 17.7043 15.5869C17.7756 15.4961 17.8113 15.375 17.8113 15.2236V15.2222C17.8113 15.0718 17.7756 14.9512 17.7043 14.8604C17.634 14.7686 17.5422 14.7227 17.429 14.7227C17.3127 14.7227 17.2205 14.7676 17.1521 14.8574C17.0837 14.9463 17.0496 15.0679 17.0496 15.2222V15.2236C17.0496 15.3779 17.0833 15.5 17.1506 15.5898C17.219 15.6787 17.3118 15.7231 17.429 15.7231ZM18.5833 16V14.7285H18.3708V14.4473H18.5833V14.2993C18.5833 14.147 18.6213 14.0352 18.6975 13.9639C18.7747 13.8916 18.8967 13.8555 19.0637 13.8555C19.1428 13.8555 19.2078 13.8604 19.2585 13.8701V14.125C19.2263 14.1201 19.1897 14.1177 19.1487 14.1177C19.01 14.1177 18.9407 14.1816 18.9407 14.3096V14.4473H19.2527V14.7285H18.948V16H18.5833Z" fill="#5D5B57"/>
</svg>
