<svg width="40" height="40" viewBox="0 0 40 40" fill="none" xmlns="http://www.w3.org/2000/svg">
<rect width="40" height="40" rx="7" fill="#F7F7F5"/>
<path d="M21.1666 19.4167C21.1666 18.4502 21.9501 17.6667 22.9166 17.6667C23.8831 17.6667 24.6666 18.4502 24.6666 19.4167C24.6666 20.3832 23.8831 21.1667 22.9166 21.1667C21.9501 21.1667 21.1666 20.3832 21.1666 19.4167Z" fill="#5D5B57"/>
<path d="M18.9919 21.2863C18.832 21.0304 18.5516 20.875 18.2499 20.875C17.9482 20.875 17.6678 21.0304 17.5079 21.2863L14.5913 25.9529C14.4227 26.2227 14.4137 26.5626 14.5679 26.8408C14.7221 27.119 15.0152 27.2917 15.3333 27.2917H24.6666C24.998 27.2917 25.301 27.1044 25.4492 26.808C25.5974 26.5115 25.5654 26.1568 25.3666 25.8917L23.6166 23.5583C23.4513 23.338 23.192 23.2083 22.9166 23.2083C22.6412 23.2083 22.3818 23.338 22.2166 23.5583L21.2323 24.8708L18.9919 21.2863Z" fill="#5D5B57"/>
<path fill-rule="evenodd" clip-rule="evenodd" d="M14.1666 8.625C12.3947 8.625 10.9583 10.0614 10.9583 11.8333V28.1667C10.9583 29.9386 12.3947 31.375 14.1666 31.375H25.8333C27.6052 31.375 29.0416 29.9386 29.0416 28.1667V15.2956C29.0416 14.8514 28.8967 14.4193 28.6289 14.0648L25.1315 9.43588C24.7456 8.92518 24.1426 8.625 23.5025 8.625H14.1666ZM12.7083 11.8333C12.7083 11.0279 13.3612 10.375 14.1666 10.375H22.6249V15.5049C22.6249 15.9881 23.0167 16.3799 23.4999 16.3799H27.2916V28.1667C27.2916 28.9721 26.6387 29.625 25.8333 29.625H14.1666C13.3612 29.625 12.7083 28.9721 12.7083 28.1667V11.8333Z" fill="#5D5B57"/>
<path d="M14.6633 15.9619C14.6233 16.0029 14.5735 16.0234 14.5139 16.0234C14.4543 16.0234 14.4041 16.0029 14.363 15.9619C14.322 15.9209 14.3015 15.8706 14.3015 15.811C14.3015 15.7524 14.322 15.7026 14.363 15.6616C14.4041 15.6206 14.4543 15.6001 14.5139 15.6001C14.5735 15.6001 14.6233 15.6206 14.6633 15.6616C14.7043 15.7026 14.7249 15.7524 14.7249 15.811C14.7249 15.8706 14.7043 15.9209 14.6633 15.9619ZM15.0105 16.5127V14.4473H15.3752V14.7153H15.3826C15.4275 14.6206 15.4915 14.5469 15.5745 14.4941C15.6584 14.4414 15.7551 14.415 15.8645 14.415C16.0618 14.415 16.218 14.4873 16.3333 14.6318C16.4495 14.7764 16.5076 14.9736 16.5076 15.2236V15.2251C16.5076 15.4731 16.45 15.6694 16.3347 15.814C16.2195 15.9585 16.0642 16.0308 15.8689 16.0308C15.7595 16.0308 15.6619 16.0049 15.5759 15.9531C15.491 15.9014 15.4265 15.8296 15.3826 15.7378H15.3752V16.5127H15.0105ZM15.7561 15.7231C15.8723 15.7231 15.9646 15.6787 16.033 15.5898C16.1013 15.5 16.1355 15.3784 16.1355 15.2251V15.2236C16.1355 15.0684 16.1013 14.9463 16.033 14.8574C15.9656 14.7676 15.8733 14.7227 15.7561 14.7227C15.6428 14.7227 15.5505 14.7686 15.4792 14.8604C15.408 14.9512 15.3723 15.0723 15.3723 15.2236V15.2251C15.3723 15.3755 15.408 15.4961 15.4792 15.5869C15.5505 15.6777 15.6428 15.7231 15.7561 15.7231ZM16.7419 16V14.4473H17.1067V14.6904H17.114C17.156 14.6035 17.217 14.5361 17.2971 14.4883C17.3772 14.4395 17.4744 14.415 17.5886 14.415C17.7585 14.415 17.8904 14.4663 17.9841 14.5688C18.0779 14.6714 18.1248 14.8135 18.1248 14.9951V16H17.76V15.0684C17.76 14.9561 17.7336 14.8706 17.6809 14.812C17.6292 14.7524 17.552 14.7227 17.4495 14.7227C17.345 14.7227 17.2615 14.7573 17.199 14.8267C17.1375 14.896 17.1067 14.9868 17.1067 15.0991V16H16.7419ZM19.1179 16.5435C18.9177 16.5435 18.7542 16.5029 18.6272 16.4219C18.5002 16.3418 18.4255 16.2388 18.4031 16.1128L18.4001 16.0996H18.759L18.7634 16.1113C18.7839 16.1582 18.825 16.1958 18.8865 16.2241C18.949 16.2534 19.0261 16.2681 19.1179 16.2681C19.2351 16.2681 19.3254 16.2393 19.3889 16.1816C19.4534 16.124 19.4856 16.0449 19.4856 15.9443V15.7202H19.4783C19.4343 15.8042 19.3699 15.8706 19.2849 15.9194C19.2 15.9673 19.1028 15.9912 18.9934 15.9912C18.7981 15.9912 18.6423 15.9214 18.5261 15.7817C18.4109 15.6411 18.3533 15.4502 18.3533 15.209V15.2075C18.3533 14.9634 18.4114 14.7705 18.5276 14.6289C18.6448 14.4863 18.802 14.415 18.9993 14.415C19.1067 14.415 19.2019 14.4414 19.2849 14.4941C19.3679 14.5469 19.4319 14.6191 19.4768 14.7109H19.4856V14.4473H19.8503V15.9561C19.8503 16.1328 19.7839 16.2749 19.6511 16.3823C19.5193 16.4897 19.3416 16.5435 19.1179 16.5435ZM19.1077 15.71C19.2219 15.71 19.3137 15.6655 19.3831 15.5767C19.4524 15.4868 19.4871 15.3667 19.4871 15.2163V15.2148C19.4871 15.0654 19.4519 14.9463 19.3816 14.8574C19.3123 14.7676 19.2209 14.7227 19.1077 14.7227C18.9905 14.7227 18.8972 14.7671 18.8279 14.856C18.7595 14.9438 18.7253 15.063 18.7253 15.2134V15.2148C18.7253 15.3672 18.7595 15.4878 18.8279 15.5767C18.8972 15.6655 18.9905 15.71 19.1077 15.71Z" fill="#5D5B57"/>
</svg>
