<svg width="40" height="40" viewBox="0 0 40 40" fill="none" xmlns="http://www.w3.org/2000/svg">
<rect width="40" height="40" rx="7" fill="#F7F7F5"/>
<path fill-rule="evenodd" clip-rule="evenodd" d="M10.9583 11.8333C10.9583 10.0614 12.3947 8.625 14.1666 8.625H23.4846C24.1423 8.625 24.7597 8.94184 25.1432 9.47614L28.6585 14.3737C28.9076 14.7207 29.0416 15.1371 29.0416 15.5642V28.1667C29.0416 29.9386 27.6052 31.375 25.8333 31.375H14.1666C12.3947 31.375 10.9583 29.9386 10.9583 28.1667V11.8333ZM14.1666 10.375C13.3612 10.375 12.7083 11.0279 12.7083 11.8333V28.1667C12.7083 28.9721 13.3612 29.625 14.1666 29.625H25.8333C26.6387 29.625 27.2916 28.9721 27.2916 28.1667V16.3799H23.4999C23.0167 16.3799 22.6249 15.9881 22.6249 15.5049V10.375H14.1666Z" fill="#5D5B57"/>
<circle cx="19.75" cy="22.75" r="3.75" fill="#5D5B57"/>
<path d="M19.4248 19.275V22.625C19.4248 22.8735 19.6263 23.075 19.8748 23.075H23.2248C23.4681 23.075 23.6839 22.8758 23.6684 22.6113C23.6293 21.9419 23.4039 21.0298 22.8263 20.2654C22.2412 19.4914 21.3049 18.8838 19.8857 18.829C19.6292 18.8191 19.4248 19.027 19.4248 19.275Z" fill="#5D5B57" stroke="#F7F7F5" stroke-width="0.5"/>
<path d="M15.4966 16.9619C15.4565 17.0029 15.4067 17.0234 15.3472 17.0234C15.2876 17.0234 15.2373 17.0029 15.1963 16.9619C15.1553 16.9209 15.1348 16.8706 15.1348 16.811C15.1348 16.7524 15.1553 16.7026 15.1963 16.6616C15.2373 16.6206 15.2876 16.6001 15.3472 16.6001C15.4067 16.6001 15.4565 16.6206 15.4966 16.6616C15.5376 16.7026 15.5581 16.7524 15.5581 16.811C15.5581 16.8706 15.5376 16.9209 15.4966 16.9619ZM15.8438 17.5127V15.4473H16.2085V15.7153H16.2158C16.2607 15.6206 16.3247 15.5469 16.4077 15.4941C16.4917 15.4414 16.5884 15.415 16.6978 15.415C16.895 15.415 17.0513 15.4873 17.1665 15.6318C17.2827 15.7764 17.3408 15.9736 17.3408 16.2236V16.2251C17.3408 16.4731 17.2832 16.6694 17.168 16.814C17.0527 16.9585 16.8975 17.0308 16.7021 17.0308C16.5928 17.0308 16.4951 17.0049 16.4092 16.9531C16.3242 16.9014 16.2598 16.8296 16.2158 16.7378H16.2085V17.5127H15.8438ZM16.5894 16.7231C16.7056 16.7231 16.7979 16.6787 16.8662 16.5898C16.9346 16.5 16.9688 16.3784 16.9688 16.2251V16.2236C16.9688 16.0684 16.9346 15.9463 16.8662 15.8574C16.7988 15.7676 16.7065 15.7227 16.5894 15.7227C16.4761 15.7227 16.3838 15.7686 16.3125 15.8604C16.2412 15.9512 16.2056 16.0723 16.2056 16.2236V16.2251C16.2056 16.3755 16.2412 16.4961 16.3125 16.5869C16.3838 16.6777 16.4761 16.7231 16.5894 16.7231ZM17.5752 17.5127V15.4473H17.9399V15.7153H17.9473C17.9922 15.6206 18.0562 15.5469 18.1392 15.4941C18.2231 15.4414 18.3198 15.415 18.4292 15.415C18.6265 15.415 18.7827 15.4873 18.8979 15.6318C19.0142 15.7764 19.0723 15.9736 19.0723 16.2236V16.2251C19.0723 16.4731 19.0146 16.6694 18.8994 16.814C18.7842 16.9585 18.6289 17.0308 18.4336 17.0308C18.3242 17.0308 18.2266 17.0049 18.1406 16.9531C18.0557 16.9014 17.9912 16.8296 17.9473 16.7378H17.9399V17.5127H17.5752ZM18.3208 16.7231C18.437 16.7231 18.5293 16.6787 18.5977 16.5898C18.666 16.5 18.7002 16.3784 18.7002 16.2251V16.2236C18.7002 16.0684 18.666 15.9463 18.5977 15.8574C18.5303 15.7676 18.438 15.7227 18.3208 15.7227C18.2075 15.7227 18.1152 15.7686 18.0439 15.8604C17.9727 15.9512 17.937 16.0723 17.937 16.2236V16.2251C17.937 16.3755 17.9727 16.4961 18.0439 16.5869C18.1152 16.6777 18.2075 16.7231 18.3208 16.7231ZM19.8838 17.0308C19.7197 17.0308 19.5986 16.9951 19.5205 16.9238C19.4434 16.8525 19.4048 16.7378 19.4048 16.5796V15.7285H19.1851V15.4473H19.4048V15.0532H19.7754V15.4473H20.064V15.7285H19.7754V16.5488C19.7754 16.623 19.7915 16.6753 19.8237 16.7056C19.856 16.7349 19.9067 16.7495 19.9761 16.7495C19.9897 16.7495 20.0073 16.7485 20.0288 16.7466C20.0503 16.7446 20.062 16.7437 20.064 16.7437V17.0176C20.0005 17.0264 19.9404 17.0308 19.8838 17.0308Z" fill="#5D5B57"/>
</svg>
