<svg width="40" height="40" viewBox="0 0 40 40" fill="none" xmlns="http://www.w3.org/2000/svg">
<rect width="40" height="40" rx="7" fill="#F7F7F5"/>
<path d="M21.1666 19.4167C21.1666 18.4502 21.9501 17.6667 22.9166 17.6667C23.8831 17.6667 24.6666 18.4502 24.6666 19.4167C24.6666 20.3832 23.8831 21.1667 22.9166 21.1667C21.9501 21.1667 21.1666 20.3832 21.1666 19.4167Z" fill="#5D5B57"/>
<path d="M18.9919 21.2863C18.832 21.0304 18.5516 20.875 18.2499 20.875C17.9482 20.875 17.6678 21.0304 17.5079 21.2863L14.5913 25.9529C14.4227 26.2227 14.4137 26.5626 14.5679 26.8408C14.7221 27.119 15.0152 27.2917 15.3333 27.2917H24.6666C24.998 27.2917 25.301 27.1044 25.4492 26.808C25.5974 26.5115 25.5654 26.1568 25.3666 25.8917L23.6166 23.5583C23.4513 23.338 23.192 23.2083 22.9166 23.2083C22.6412 23.2083 22.3818 23.338 22.2166 23.5583L21.2323 24.8708L18.9919 21.2863Z" fill="#5D5B57"/>
<path fill-rule="evenodd" clip-rule="evenodd" d="M14.1666 8.625C12.3947 8.625 10.9583 10.0614 10.9583 11.8333V28.1667C10.9583 29.9386 12.3947 31.375 14.1666 31.375H25.8333C27.6052 31.375 29.0416 29.9386 29.0416 28.1667V15.2956C29.0416 14.8514 28.8967 14.4193 28.6289 14.0648L25.1315 9.43588C24.7456 8.92518 24.1426 8.625 23.5025 8.625H14.1666ZM12.7083 11.8333C12.7083 11.0279 13.3612 10.375 14.1666 10.375H22.6249V15.5049C22.6249 15.9881 23.0167 16.3799 23.4999 16.3799H27.2916V28.1667C27.2916 28.9721 26.6387 29.625 25.8333 29.625H14.1666C13.3612 29.625 12.7083 28.9721 12.7083 28.1667V11.8333Z" fill="#5D5B57"/>
<path d="M14.6633 15.9619C14.6233 16.0029 14.5735 16.0234 14.5139 16.0234C14.4543 16.0234 14.4041 16.0029 14.363 15.9619C14.322 15.9209 14.3015 15.8706 14.3015 15.811C14.3015 15.7524 14.322 15.7026 14.363 15.6616C14.4041 15.6206 14.4543 15.6001 14.5139 15.6001C14.5735 15.6001 14.6233 15.6206 14.6633 15.6616C14.7043 15.7026 14.7249 15.7524 14.7249 15.811C14.7249 15.8706 14.7043 15.9209 14.6633 15.9619ZM15.6169 16.0308C15.4177 16.0308 15.26 15.9873 15.1438 15.9004C15.0276 15.8135 14.9612 15.6963 14.9446 15.5488L14.9431 15.5356H15.302L15.3049 15.5488C15.3342 15.6904 15.4387 15.7612 15.6184 15.7612C15.7063 15.7612 15.7756 15.7446 15.8264 15.7114C15.8772 15.6782 15.9026 15.6328 15.9026 15.5752V15.5737C15.9026 15.5259 15.8865 15.4878 15.8542 15.4595C15.822 15.4312 15.7664 15.4082 15.6873 15.3906L15.4294 15.3335C15.1316 15.2671 14.9827 15.1201 14.9827 14.8926V14.8911C14.9827 14.7485 15.0393 14.6338 15.1526 14.5469C15.2668 14.459 15.4177 14.415 15.6052 14.415C15.7927 14.415 15.9421 14.4604 16.0535 14.5513C16.1648 14.6421 16.2239 14.7568 16.2307 14.8955L16.2322 14.9116H15.8923L15.8909 14.8999C15.8821 14.8354 15.8528 14.7837 15.803 14.7446C15.7532 14.7046 15.6873 14.6846 15.6052 14.6846C15.5251 14.6846 15.4612 14.7017 15.4133 14.7358C15.3665 14.77 15.343 14.8159 15.343 14.8735V14.875C15.343 14.9209 15.3601 14.959 15.3943 14.9893C15.4285 15.0186 15.4851 15.042 15.5642 15.0596L15.8235 15.1167C15.9827 15.1519 16.0964 15.2026 16.1648 15.269C16.2341 15.3354 16.2688 15.4258 16.2688 15.54V15.5415C16.2688 15.687 16.2078 15.8052 16.0857 15.896C15.9646 15.9858 15.8083 16.0308 15.6169 16.0308ZM16.9148 16L16.3655 14.4473H16.7537L17.114 15.6616H17.1228L17.4817 14.4473H17.8625L17.3162 16H16.9148ZM18.6755 16.5435C18.4753 16.5435 18.3118 16.5029 18.1848 16.4219C18.0579 16.3418 17.9832 16.2388 17.9607 16.1128L17.9578 16.0996H18.3167L18.321 16.1113C18.3416 16.1582 18.3826 16.1958 18.4441 16.2241C18.5066 16.2534 18.5837 16.2681 18.6755 16.2681C18.7927 16.2681 18.8831 16.2393 18.9465 16.1816C19.011 16.124 19.0432 16.0449 19.0432 15.9443V15.7202H19.0359C18.9919 15.8042 18.9275 15.8706 18.8425 15.9194C18.7576 15.9673 18.6604 15.9912 18.551 15.9912C18.3557 15.9912 18.2 15.9214 18.0837 15.7817C17.9685 15.6411 17.9109 15.4502 17.9109 15.209V15.2075C17.9109 14.9634 17.969 14.7705 18.0852 14.6289C18.2024 14.4863 18.3596 14.415 18.5569 14.415C18.6643 14.415 18.7595 14.4414 18.8425 14.4941C18.9255 14.5469 18.9895 14.6191 19.0344 14.7109H19.0432V14.4473H19.408V15.9561C19.408 16.1328 19.3416 16.2749 19.2087 16.3823C19.0769 16.4897 18.8992 16.5435 18.6755 16.5435ZM18.6653 15.71C18.7795 15.71 18.8713 15.6655 18.9407 15.5767C19.01 15.4868 19.0447 15.3667 19.0447 15.2163V15.2148C19.0447 15.0654 19.0095 14.9463 18.9392 14.8574C18.8699 14.7676 18.7786 14.7227 18.6653 14.7227C18.5481 14.7227 18.4548 14.7671 18.3855 14.856C18.3171 14.9438 18.283 15.063 18.283 15.2134V15.2148C18.283 15.3672 18.3171 15.4878 18.3855 15.5767C18.4548 15.6655 18.5481 15.71 18.6653 15.71Z" fill="#5D5B57"/>
</svg>
