<svg width="40" height="40" viewBox="0 0 40 40" fill="none" xmlns="http://www.w3.org/2000/svg">
<rect width="40" height="40" rx="7" fill="#F7F7F5"/>
<path fill-rule="evenodd" clip-rule="evenodd" d="M10.9583 11.8333C10.9583 10.0614 12.3947 8.625 14.1666 8.625H23.4846C24.1423 8.625 24.7597 8.94184 25.1432 9.47614L28.6585 14.3737C28.9076 14.7207 29.0416 15.1371 29.0416 15.5642V28.1667C29.0416 29.9386 27.6052 31.375 25.8333 31.375H14.1666C12.3947 31.375 10.9583 29.9386 10.9583 28.1667V11.8333ZM14.1666 10.375C13.3612 10.375 12.7083 11.0279 12.7083 11.8333V28.1667C12.7083 28.9721 13.3612 29.625 14.1666 29.625H25.8333C26.6387 29.625 27.2916 28.9721 27.2916 28.1667V16.3799H23.4999C23.0167 16.3799 22.6249 15.9881 22.6249 15.5049V10.375H14.1666Z" fill="#5D5B57"/>
<path d="M15.4966 16.9619C15.4565 17.0029 15.4067 17.0234 15.3472 17.0234C15.2876 17.0234 15.2373 17.0029 15.1963 16.9619C15.1553 16.9209 15.1348 16.8706 15.1348 16.811C15.1348 16.7524 15.1553 16.7026 15.1963 16.6616C15.2373 16.6206 15.2876 16.6001 15.3472 16.6001C15.4067 16.6001 15.4565 16.6206 15.4966 16.6616C15.5376 16.7026 15.5581 16.7524 15.5581 16.811C15.5581 16.8706 15.5376 16.9209 15.4966 16.9619ZM16.2832 17.0308C16.1191 17.0308 15.998 16.9951 15.9199 16.9238C15.8428 16.8525 15.8042 16.7378 15.8042 16.5796V15.7285H15.5845V15.4473H15.8042V15.0532H16.1748V15.4473H16.4634V15.7285H16.1748V16.5488C16.1748 16.623 16.1909 16.6753 16.2231 16.7056C16.2554 16.7349 16.3062 16.7495 16.3755 16.7495C16.3892 16.7495 16.4067 16.7485 16.4282 16.7466C16.4497 16.7446 16.4614 16.7437 16.4634 16.7437V17.0176C16.3999 17.0264 16.3398 17.0308 16.2832 17.0308ZM16.6011 17L17.1035 16.2251L16.6069 15.4473H17.0171L17.3291 15.9922H17.3379L17.647 15.4473H18.0454L17.5459 16.2148L18.041 17H17.6426L17.3203 16.4434H17.3115L16.9907 17H16.6011ZM18.8086 17.0308C18.6445 17.0308 18.5234 16.9951 18.4453 16.9238C18.3682 16.8525 18.3296 16.7378 18.3296 16.5796V15.7285H18.1099V15.4473H18.3296V15.0532H18.7002V15.4473H18.9888V15.7285H18.7002V16.5488C18.7002 16.623 18.7163 16.6753 18.7485 16.7056C18.7808 16.7349 18.8315 16.7495 18.9009 16.7495C18.9146 16.7495 18.9321 16.7485 18.9536 16.7466C18.9751 16.7446 18.9868 16.7437 18.9888 16.7437V17.0176C18.9253 17.0264 18.8652 17.0308 18.8086 17.0308Z" fill="#5D5B57"/>
<path d="M17.1652 27.0505C16.8676 27.0505 16.627 26.9672 16.4436 26.8007C16.2602 26.6341 16.1685 26.4179 16.1685 26.1521V26.1465C16.1685 25.8826 16.2667 25.6739 16.4633 25.5204C16.6598 25.3669 16.9387 25.2789 17.2999 25.2565L18.0776 25.2087V25.0038C18.0776 24.8522 18.0299 24.7343 17.9344 24.65C17.839 24.5639 17.7033 24.5209 17.5273 24.5209C17.3664 24.5209 17.2354 24.5555 17.1343 24.6248C17.0332 24.6921 16.9714 24.782 16.949 24.8943L16.9434 24.9196H16.2948L16.2976 24.8859C16.3201 24.6145 16.4427 24.3927 16.6654 24.2205C16.8881 24.0483 17.1839 23.9622 17.5526 23.9622C17.9232 23.9622 18.2199 24.0529 18.4426 24.2345C18.6654 24.4142 18.7767 24.6538 18.7767 24.9532V27H18.0776V26.5424H18.0608C17.9747 26.6996 17.8521 26.8241 17.693 26.9158C17.5358 27.0056 17.3598 27.0505 17.1652 27.0505ZM16.8647 26.124C16.8647 26.2457 16.9106 26.3421 17.0023 26.4132C17.0959 26.4825 17.2194 26.5171 17.3729 26.5171C17.5732 26.5171 17.7407 26.4581 17.8755 26.3402C18.0103 26.2204 18.0776 26.0726 18.0776 25.8966V25.672L17.3982 25.7141C17.226 25.7253 17.094 25.7665 17.0023 25.8376C16.9106 25.9088 16.8647 26.0033 16.8647 26.1212V26.124ZM21.0032 27.059C20.7917 27.059 20.6054 27.0094 20.4445 26.9102C20.2854 26.811 20.1628 26.6724 20.0767 26.4946H20.0598V27H19.3607V22.9486H20.0598V24.5349H20.0767C20.1609 24.3552 20.2844 24.2148 20.4473 24.1138C20.6101 24.0127 20.7963 23.9622 21.006 23.9622C21.3803 23.9622 21.6779 24.1007 21.8988 24.3777C22.1215 24.6547 22.2329 25.0319 22.2329 25.5092V25.512C22.2329 25.9893 22.1225 26.3664 21.9016 26.6434C21.6807 26.9205 21.3813 27.059 21.0032 27.059ZM20.7926 26.4694C21.0172 26.4694 21.1941 26.3842 21.3232 26.2139C21.4543 26.0417 21.5198 25.8077 21.5198 25.512V25.5092C21.5198 25.2134 21.4543 24.9804 21.3232 24.8101C21.1922 24.6379 21.0153 24.5518 20.7926 24.5518C20.5755 24.5518 20.3986 24.6397 20.262 24.8157C20.1272 24.9897 20.0598 25.2209 20.0598 25.5092V25.512C20.0598 25.8021 20.1272 26.0342 20.262 26.2083C20.3986 26.3823 20.5755 26.4694 20.7926 26.4694ZM23.9961 27.059C23.5544 27.059 23.2043 26.9205 22.946 26.6434C22.6877 26.3645 22.5586 25.9865 22.5586 25.5092V25.5063C22.5586 25.0328 22.6877 24.6575 22.946 24.3805C23.2062 24.1016 23.5534 23.9622 23.9877 23.9622C24.3676 23.9622 24.6755 24.067 24.9114 24.2766C25.1491 24.4862 25.2792 24.7455 25.3016 25.0543L25.3044 25.0768H24.6447L24.639 25.0515C24.6072 24.898 24.5361 24.7726 24.4257 24.6753C24.3152 24.578 24.172 24.5293 23.9961 24.5293C23.7752 24.5293 23.5993 24.6173 23.4683 24.7932C23.3372 24.9692 23.2717 25.2087 23.2717 25.512V25.5148C23.2717 25.8217 23.3372 26.0623 23.4683 26.2363C23.5993 26.4085 23.7762 26.4946 23.9989 26.4946C24.1711 26.4946 24.3124 26.4478 24.4229 26.3542C24.5352 26.2607 24.6082 26.1334 24.6418 25.9724L24.6475 25.9471H25.3073L25.3044 25.9668C25.2764 26.2831 25.1435 26.5442 24.9058 26.7501C24.6681 26.956 24.3648 27.059 23.9961 27.059Z" fill="#5D5B57"/>
</svg>
