<svg width="40" height="40" viewBox="0 0 40 40" fill="none" xmlns="http://www.w3.org/2000/svg">
<rect width="40" height="40" rx="7" fill="#F7F7F5"/>
<path d="M24.3749 21.1667C24.3749 20.6834 23.9832 20.2917 23.4999 20.2917H16.4999C16.0167 20.2917 15.6249 20.6834 15.6249 21.1667C15.6249 21.6499 16.0167 22.0417 16.4999 22.0417H23.4999C23.9832 22.0417 24.3749 21.6499 24.3749 21.1667Z" fill="#5D5B57"/>
<path d="M24.3749 25.8333C24.3749 25.3501 23.9832 24.9583 23.4999 24.9583H16.4999C16.0167 24.9583 15.6249 25.3501 15.6249 25.8333C15.6249 26.3166 16.0167 26.7083 16.4999 26.7083H23.4999C23.9832 26.7083 24.3749 26.3166 24.3749 25.8333Z" fill="#5D5B57"/>
<path fill-rule="evenodd" clip-rule="evenodd" d="M14.1666 8.625C12.3947 8.625 10.9583 10.0614 10.9583 11.8333V28.1667C10.9583 29.9386 12.3947 31.375 14.1666 31.375H25.8333C27.6052 31.375 29.0416 29.9386 29.0416 28.1667V15.2956C29.0416 14.8514 28.8967 14.4193 28.6289 14.0648L25.1315 9.43588C24.7456 8.92518 24.1426 8.625 23.5025 8.625H14.1666ZM12.7083 11.8333C12.7083 11.0279 13.3612 10.375 14.1666 10.375H22.6249V15.5049C22.6249 15.9881 23.0167 16.3799 23.4999 16.3799H27.2916V28.1667C27.2916 28.9721 26.6387 29.625 25.8333 29.625H14.1666C13.3612 29.625 12.7083 28.9721 12.7083 28.1667V11.8333Z" fill="#5D5B57"/>
<path d="M14.6633 15.9619C14.6233 16.0029 14.5735 16.0234 14.5139 16.0234C14.4543 16.0234 14.4041 16.0029 14.363 15.9619C14.322 15.9209 14.3015 15.8706 14.3015 15.811C14.3015 15.7524 14.322 15.7026 14.363 15.6616C14.4041 15.6206 14.4543 15.6001 14.5139 15.6001C14.5735 15.6001 14.6233 15.6206 14.6633 15.6616C14.7043 15.7026 14.7249 15.7524 14.7249 15.811C14.7249 15.8706 14.7043 15.9209 14.6633 15.9619ZM15.45 16.0308C15.2859 16.0308 15.1648 15.9951 15.0867 15.9238C15.0095 15.8525 14.9709 15.7378 14.9709 15.5796V14.7285H14.7512V14.4473H14.9709V14.0532H15.3416V14.4473H15.6301V14.7285H15.3416V15.5488C15.3416 15.623 15.3577 15.6753 15.3899 15.7056C15.4221 15.7349 15.4729 15.7495 15.5422 15.7495C15.5559 15.7495 15.5735 15.7485 15.595 15.7466C15.6165 15.7446 15.6282 15.7437 15.6301 15.7437V16.0176C15.5667 16.0264 15.5066 16.0308 15.45 16.0308ZM15.7678 16L16.2703 15.2251L15.7737 14.4473H16.1838L16.4958 14.9922H16.5046L16.8137 14.4473H17.2122L16.7126 15.2148L17.2078 16H16.8093L16.4871 15.4434H16.4783L16.1575 16H15.7678ZM17.9753 16.0308C17.8113 16.0308 17.6902 15.9951 17.6121 15.9238C17.5349 15.8525 17.4963 15.7378 17.4963 15.5796V14.7285H17.2766V14.4473H17.4963V14.0532H17.8669V14.4473H18.1555V14.7285H17.8669V15.5488C17.8669 15.623 17.8831 15.6753 17.9153 15.7056C17.9475 15.7349 17.9983 15.7495 18.0676 15.7495C18.0813 15.7495 18.0989 15.7485 18.1204 15.7466C18.1418 15.7446 18.1536 15.7437 18.1555 15.7437V16.0176C18.092 16.0264 18.032 16.0308 17.9753 16.0308Z" fill="#5D5B57"/>
</svg>
