<svg width="40" height="40" viewBox="0 0 40 40" fill="none" xmlns="http://www.w3.org/2000/svg">
<rect width="40" height="40" rx="7" fill="#F7F7F5"/>
<path fill-rule="evenodd" clip-rule="evenodd" d="M10.9583 11.8333C10.9583 10.0614 12.3947 8.625 14.1666 8.625H23.4846C24.1423 8.625 24.7597 8.94184 25.1432 9.47614L28.6585 14.3737C28.9076 14.7207 29.0416 15.1371 29.0416 15.5642V28.1667C29.0416 29.9386 27.6052 31.375 25.8333 31.375H14.1666C12.3947 31.375 10.9583 29.9386 10.9583 28.1667V11.8333ZM14.1666 10.375C13.3612 10.375 12.7083 11.0279 12.7083 11.8333V28.1667C12.7083 28.9721 13.3612 29.625 14.1666 29.625H25.8333C26.6387 29.625 27.2916 28.9721 27.2916 28.1667V16.3799H23.4999C23.0167 16.3799 22.6249 15.9881 22.6249 15.5049V10.375H14.1666Z" fill="#5D5B57"/>
</svg>
