<svg width="40" height="40" viewBox="0 0 40 40" fill="none" xmlns="http://www.w3.org/2000/svg">
<rect width="40" height="40" rx="7" fill="#F7F7F5"/>
<path fill-rule="evenodd" clip-rule="evenodd" d="M10.9583 11.8333C10.9583 10.0614 12.3947 8.625 14.1666 8.625H23.4846C24.1423 8.625 24.7597 8.94184 25.1432 9.47614L28.6585 14.3737C28.9076 14.7207 29.0416 15.1371 29.0416 15.5642V28.1667C29.0416 29.9386 27.6052 31.375 25.8333 31.375H14.1666C12.3947 31.375 10.9583 29.9386 10.9583 28.1667V11.8333ZM14.1666 10.375C13.3612 10.375 12.7083 11.0279 12.7083 11.8333V28.1667C12.7083 28.9721 13.3612 29.625 14.1666 29.625H25.8333C26.6387 29.625 27.2916 28.9721 27.2916 28.1667V16.3799H23.4999C23.0167 16.3799 22.6249 15.9881 22.6249 15.5049V10.375H14.1666Z" fill="#5D5B57"/>
<path fill-rule="evenodd" clip-rule="evenodd" d="M19.5 18.8438C19.3447 18.8438 19.2188 18.9697 19.2188 19.125V20.625C19.2188 20.625 19.2188 20.625 19.2188 20.625L19.2188 23.3473C18.9408 23.1112 18.5808 22.9688 18.1875 22.9688C17.3073 22.9688 16.5938 23.6823 16.5938 24.5625C16.5938 25.4427 17.3073 26.1562 18.1875 26.1562C19.0677 26.1562 19.7812 25.4427 19.7812 24.5625C19.7812 24.5179 19.7794 24.4738 19.7758 24.4302C19.7794 24.4123 19.7813 24.3939 19.7813 24.375L19.7812 20.9062H21.75C22.3195 20.9062 22.7812 20.4445 22.7812 19.875C22.7812 19.3055 22.3195 18.8438 21.75 18.8438H19.5ZM19.7812 20.3438H21.75C22.0089 20.3438 22.2188 20.1339 22.2188 19.875C22.2188 19.6161 22.0089 19.4062 21.75 19.4062H19.7812V20.3438ZM18.1875 23.5312C17.618 23.5312 17.1562 23.993 17.1562 24.5625C17.1562 25.132 17.618 25.5938 18.1875 25.5938C18.757 25.5938 19.2188 25.132 19.2188 24.5625C19.2188 23.993 18.757 23.5312 18.1875 23.5312Z" fill="#5D5B57"/>
<path d="M15.4966 16.9619C15.4565 17.0029 15.4067 17.0234 15.3472 17.0234C15.2876 17.0234 15.2373 17.0029 15.1963 16.9619C15.1553 16.9209 15.1348 16.8706 15.1348 16.811C15.1348 16.7524 15.1553 16.7026 15.1963 16.6616C15.2373 16.6206 15.2876 16.6001 15.3472 16.6001C15.4067 16.6001 15.4565 16.6206 15.4966 16.6616C15.5376 16.7026 15.5581 16.7524 15.5581 16.811C15.5581 16.8706 15.5376 16.9209 15.4966 16.9619ZM15.9712 17L15.5508 15.4473H15.917L16.1792 16.6396H16.1865L16.4897 15.4473H16.8398L17.1431 16.6396H17.1519L17.4141 15.4473H17.7744L17.354 17H16.9702L16.6641 15.8647H16.6567L16.3521 17H15.9712ZM18.3706 17.0264C18.2153 17.0264 18.0898 16.9829 17.9941 16.896C17.8984 16.8091 17.8506 16.6963 17.8506 16.5576V16.5547C17.8506 16.417 17.9019 16.3081 18.0044 16.228C18.1069 16.1479 18.2524 16.1021 18.4409 16.0903L18.8467 16.0654V15.9585C18.8467 15.8794 18.8218 15.8179 18.772 15.7739C18.7222 15.729 18.6514 15.7065 18.5596 15.7065C18.4756 15.7065 18.4072 15.7246 18.3545 15.7607C18.3018 15.7959 18.2695 15.8428 18.2578 15.9014L18.2549 15.9146H17.9165L17.918 15.897C17.9297 15.7554 17.9937 15.6396 18.1099 15.5498C18.2261 15.46 18.3804 15.415 18.5728 15.415C18.7661 15.415 18.9209 15.4624 19.0371 15.5571C19.1533 15.6509 19.2114 15.7759 19.2114 15.9321V17H18.8467V16.7612H18.8379C18.793 16.8433 18.729 16.9082 18.646 16.9561C18.564 17.0029 18.4722 17.0264 18.3706 17.0264ZM18.2139 16.543C18.2139 16.6064 18.2378 16.6567 18.2856 16.6938C18.3345 16.73 18.3989 16.748 18.479 16.748C18.5835 16.748 18.6709 16.7173 18.7412 16.6558C18.8115 16.5933 18.8467 16.5161 18.8467 16.4243V16.3071L18.4922 16.3291C18.4023 16.335 18.3335 16.3564 18.2856 16.3936C18.2378 16.4307 18.2139 16.48 18.2139 16.5415V16.543ZM19.9189 17L19.3696 15.4473H19.7578L20.1182 16.6616H20.127L20.4858 15.4473H20.8667L20.3203 17H19.9189Z" fill="#5D5B57"/>
</svg>
