<svg width="40" height="40" viewBox="0 0 40 40" fill="none" xmlns="http://www.w3.org/2000/svg">
<rect width="40" height="40" rx="7" fill="#F7F7F5"/>
<path d="M15.4966 16.9619C15.4565 17.0029 15.4067 17.0234 15.3472 17.0234C15.2876 17.0234 15.2373 17.0029 15.1963 16.9619C15.1553 16.9209 15.1348 16.8706 15.1348 16.811C15.1348 16.7524 15.1553 16.7026 15.1963 16.6616C15.2373 16.6206 15.2876 16.6001 15.3472 16.6001C15.4067 16.6001 15.4565 16.6206 15.4966 16.6616C15.5376 16.7026 15.5581 16.7524 15.5581 16.811C15.5581 16.8706 15.5376 16.9209 15.4966 16.9619ZM15.731 17L16.2334 16.2251L15.7368 15.4473H16.147L16.459 15.9922H16.4678L16.7769 15.4473H17.1753L16.6758 16.2148L17.1709 17H16.7725L16.4502 16.4434H16.4414L16.1206 17H15.731ZM17.3716 17V14.8862H17.7363V17H17.3716ZM18.6533 17.0308C18.4541 17.0308 18.2964 16.9873 18.1802 16.9004C18.064 16.8135 17.9976 16.6963 17.981 16.5488L17.9795 16.5356H18.3384L18.3413 16.5488C18.3706 16.6904 18.4751 16.7612 18.6548 16.7612C18.7427 16.7612 18.812 16.7446 18.8628 16.7114C18.9136 16.6782 18.939 16.6328 18.939 16.5752V16.5737C18.939 16.5259 18.9229 16.4878 18.8906 16.4595C18.8584 16.4312 18.8027 16.4082 18.7236 16.3906L18.4658 16.3335C18.168 16.2671 18.019 16.1201 18.019 15.8926V15.8911C18.019 15.7485 18.0757 15.6338 18.189 15.5469C18.3032 15.459 18.4541 15.415 18.6416 15.415C18.8291 15.415 18.9785 15.4604 19.0898 15.5513C19.2012 15.6421 19.2603 15.7568 19.2671 15.8955L19.2686 15.9116H18.9287L18.9272 15.8999C18.9185 15.8354 18.8892 15.7837 18.8394 15.7446C18.7896 15.7046 18.7236 15.6846 18.6416 15.6846C18.5615 15.6846 18.4976 15.7017 18.4497 15.7358C18.4028 15.77 18.3794 15.8159 18.3794 15.8735V15.875C18.3794 15.9209 18.3965 15.959 18.4307 15.9893C18.4648 16.0186 18.5215 16.042 18.6006 16.0596L18.8599 16.1167C19.019 16.1519 19.1328 16.2026 19.2012 16.269C19.2705 16.3354 19.3052 16.4258 19.3052 16.54V16.5415C19.3052 16.687 19.2441 16.8052 19.1221 16.896C19.001 16.9858 18.8447 17.0308 18.6533 17.0308ZM19.4194 17L19.9219 16.2251L19.4253 15.4473H19.8354L20.1475 15.9922H20.1562L20.4653 15.4473H20.8638L20.3643 16.2148L20.8594 17H20.4609L20.1387 16.4434H20.1299L19.8091 17H19.4194Z" fill="#5D5B57"/>
<path fill-rule="evenodd" clip-rule="evenodd" d="M10.9583 11.8333C10.9583 10.0614 12.3947 8.625 14.1666 8.625H23.4846C24.1423 8.625 24.7597 8.94184 25.1432 9.47614L28.6585 14.3737C28.9076 14.7207 29.0416 15.1371 29.0416 15.5642V28.1667C29.0416 29.9386 27.6052 31.375 25.8333 31.375H14.1666C12.3947 31.375 10.9583 29.9386 10.9583 28.1667V11.8333ZM14.1666 10.375C13.3612 10.375 12.7083 11.0279 12.7083 11.8333V28.1667C12.7083 28.9721 13.3612 29.625 14.1666 29.625H25.8333C26.6387 29.625 27.2916 28.9721 27.2916 28.1667V16.3799H23.4999C23.0167 16.3799 22.6249 15.9881 22.6249 15.5049V10.375H14.1666Z" fill="#5D5B57"/>
<path d="M16 21H18.25" stroke="#5D5B57" stroke-width="1.4" stroke-linecap="round"/>
<path d="M16 24.5H18.25" stroke="#5D5B57" stroke-width="1.4" stroke-linecap="round"/>
<path d="M21.625 21H23.875" stroke="#5D5B57" stroke-width="1.4" stroke-linecap="round"/>
<path d="M21.625 24.5H23.875" stroke="#5D5B57" stroke-width="1.4" stroke-linecap="round"/>
</svg>
